<mxfile host="Electron" modified="2025-02-17T14:40:44.541Z" agent="Mozilla/5.0 (Windows NT 10.0; Win64; x64) AppleWebKit/537.36 (KHTML, like Gecko) draw.io/24.0.4 Chrome/120.0.6099.109 Electron/28.1.0 Safari/537.36" etag="TNX2X45BH1dViXyYhlmS" version="24.0.4" type="device" pages="3">
  <diagram name="Page-1" id="JulvsSPHi9Jr_7Jm3-x4">
    <mxGraphModel dx="1052" dy="2898" grid="1" gridSize="10" guides="1" tooltips="1" connect="1" arrows="1" fold="1" page="1" pageScale="1" pageWidth="850" pageHeight="1100" math="0" shadow="0">
      <root>
        <mxCell id="0" />
        <mxCell id="1" parent="0" />
        <mxCell id="tFWXHqorwcY2-bB6QDaT-21" style="edgeStyle=orthogonalEdgeStyle;rounded=0;orthogonalLoop=1;jettySize=auto;html=1;exitX=0.5;exitY=1;exitDx=0;exitDy=0;entryX=0.75;entryY=0;entryDx=0;entryDy=0;startArrow=classic;startFill=1;endArrow=none;endFill=0;" edge="1" parent="1" source="tFWXHqorwcY2-bB6QDaT-4" target="tFWXHqorwcY2-bB6QDaT-15">
          <mxGeometry relative="1" as="geometry" />
        </mxCell>
        <mxCell id="tFWXHqorwcY2-bB6QDaT-4" value="&lt;b&gt;&lt;font style=&quot;font-size: 14px;&quot;&gt;ANSWER KEY / QUESTION DATABASE (VECTOR DB)&lt;/font&gt;&lt;/b&gt;&lt;div&gt;&lt;b&gt;&lt;font style=&quot;font-size: 14px;&quot;&gt;&lt;br&gt;&lt;/font&gt;&lt;/b&gt;&lt;/div&gt;&lt;div&gt;&lt;b&gt;&lt;font color=&quot;#ff0000&quot; style=&quot;font-size: 14px;&quot;&gt;Question: How to ensure we take candidate answer and&amp;nbsp;&lt;/font&gt;&lt;/b&gt;&lt;/div&gt;&lt;div&gt;&lt;b&gt;&lt;font color=&quot;#ff0000&quot; style=&quot;font-size: 14px;&quot;&gt;ensure it only goes against answer key to question 1&lt;/font&gt;&lt;/b&gt;&lt;/div&gt;&lt;div&gt;&lt;br&gt;&lt;/div&gt;" style="rounded=1;whiteSpace=wrap;html=1;verticalAlign=top;" vertex="1" parent="1">
          <mxGeometry x="1630" y="-80" width="670" height="670" as="geometry" />
        </mxCell>
        <mxCell id="tFWXHqorwcY2-bB6QDaT-1" value="&lt;b&gt;QuestionID: question1&lt;/b&gt;&lt;div&gt;&lt;b&gt;VERSION 1&lt;/b&gt;&lt;div&gt;How does RAG AI work?&lt;/div&gt;&lt;div&gt;&lt;span style=&quot;background-color: initial;&quot;&gt;DateAdded: 02/02/1990&lt;/span&gt;&lt;br&gt;&lt;/div&gt;&lt;div&gt;Grading Criteria / Rubric:&lt;/div&gt;&lt;div&gt;Associated Conepts:&amp;nbsp; LLM, RAG, AI, etc&lt;/div&gt;&lt;div&gt;Accepted Solution Information:&amp;nbsp;&amp;nbsp;&lt;/div&gt;&lt;div&gt;&lt;span style=&quot;background-color: initial;&quot;&gt;{&lt;/span&gt;&lt;br&gt;&lt;/div&gt;&lt;div&gt;&lt;span style=&quot;background-color: initial;&quot;&gt;&amp;nbsp;chunkContent: &quot;The actual answer here&quot;&lt;/span&gt;&lt;span style=&quot;background-color: initial;&quot;&gt;&amp;nbsp;&lt;/span&gt;&amp;nbsp;&lt;/div&gt;&lt;div&gt;&amp;nbsp;chunkID: 0001&lt;/div&gt;&lt;div&gt;&lt;span style=&quot;background-color: initial;&quot;&gt;&amp;nbsp;&lt;/span&gt;&lt;span style=&quot;background-color: initial;&quot;&gt;embedding:&amp;nbsp;&lt;/span&gt;&lt;span style=&quot;background-color: initial;&quot;&gt;[12034912, 120349120934,&amp;nbsp; 1041023491&lt;/span&gt;&lt;/div&gt;&lt;div&gt;&lt;span style=&quot;background-color: initial;&quot;&gt;&amp;nbsp;&lt;/span&gt;&lt;span style=&quot;background-color: initial;&quot;&gt;}&lt;/span&gt;&lt;/div&gt;&lt;div&gt;&lt;div&gt;&lt;span style=&quot;background-color: initial;&quot;&gt;{&lt;/span&gt;&lt;br&gt;&lt;/div&gt;&lt;div&gt;&lt;div&gt;&lt;span style=&quot;background-color: initial;&quot;&gt;chunkContent: &quot;The great answer here but a different answer&quot;&lt;/span&gt;&lt;/div&gt;&lt;div&gt;&lt;span style=&quot;background-color: initial;&quot;&gt;chunkID: 0002&lt;/span&gt;&lt;br&gt;&lt;/div&gt;&lt;/div&gt;&lt;div&gt;embedding:&amp;nbsp;&lt;span style=&quot;background-color: initial;&quot;&gt;[14444912, 124449120934, 1041023491&lt;/span&gt;&lt;/div&gt;&lt;div&gt;}&lt;/div&gt;&lt;/div&gt;&lt;/div&gt;&lt;div&gt;&lt;br&gt;&lt;/div&gt;" style="rounded=0;whiteSpace=wrap;html=1;align=left;horizontal=1;verticalAlign=top;" vertex="1" parent="1">
          <mxGeometry x="1660" y="20" width="280" height="290" as="geometry" />
        </mxCell>
        <mxCell id="tFWXHqorwcY2-bB6QDaT-2" value="&lt;b&gt;Question 2:&lt;/b&gt;&lt;div&gt;What is Observability in RAG?&lt;/div&gt;&lt;div&gt;&lt;br&gt;&lt;/div&gt;&lt;div&gt;&lt;div&gt;Grading Criteria:&lt;/div&gt;&lt;div&gt;Associated Conepts:&amp;nbsp; LLM, RAG, AI, etc&lt;/div&gt;&lt;/div&gt;&lt;div&gt;Accepted Solution Information:&amp;nbsp; &amp;lt;good answers&amp;gt;&lt;br&gt;&lt;/div&gt;&lt;div&gt;Embedding: [12034912, 120349120934, 1041023491, etc...]&lt;br&gt;&lt;/div&gt;" style="rounded=0;whiteSpace=wrap;html=1;align=left;horizontal=1;verticalAlign=top;" vertex="1" parent="1">
          <mxGeometry x="1660" y="320" width="280" height="120" as="geometry" />
        </mxCell>
        <mxCell id="tFWXHqorwcY2-bB6QDaT-3" value="&lt;b&gt;Question 3:&lt;/b&gt;&lt;div&gt;Explain tokenization in relation to AI&lt;/div&gt;&lt;div&gt;&lt;br&gt;&lt;/div&gt;&lt;div&gt;&lt;span style=&quot;background-color: initial;&quot;&gt;Grading Criteria:&lt;/span&gt;&lt;br&gt;&lt;/div&gt;&lt;div&gt;&lt;div&gt;Associated Conepts:&amp;nbsp; LLM, RAG, AI, etc&lt;/div&gt;&lt;/div&gt;&lt;div&gt;&lt;span style=&quot;background-color: initial;&quot;&gt;Accepted Solution Information:&amp;nbsp; &amp;lt;good answers&amp;gt;&lt;/span&gt;&lt;br&gt;&lt;/div&gt;&lt;div&gt;Embedding: [12034912, 120349120934, 1041023491, etc...]&lt;span style=&quot;background-color: initial;&quot;&gt;&lt;br&gt;&lt;/span&gt;&lt;/div&gt;" style="rounded=0;whiteSpace=wrap;html=1;align=left;horizontal=1;verticalAlign=top;" vertex="1" parent="1">
          <mxGeometry x="1660" y="450" width="280" height="120" as="geometry" />
        </mxCell>
        <mxCell id="tFWXHqorwcY2-bB6QDaT-18" style="edgeStyle=orthogonalEdgeStyle;rounded=0;orthogonalLoop=1;jettySize=auto;html=1;entryX=0;entryY=0.5;entryDx=0;entryDy=0;" edge="1" parent="1" source="tFWXHqorwcY2-bB6QDaT-5" target="tFWXHqorwcY2-bB6QDaT-10">
          <mxGeometry relative="1" as="geometry" />
        </mxCell>
        <mxCell id="tFWXHqorwcY2-bB6QDaT-5" value="&lt;b&gt;&lt;font style=&quot;font-size: 14px;&quot;&gt;CANDIDATE EXAM - TEST 1&lt;/font&gt;&lt;/b&gt;" style="rounded=1;whiteSpace=wrap;html=1;verticalAlign=top;" vertex="1" parent="1">
          <mxGeometry x="160" y="90" width="390" height="500" as="geometry" />
        </mxCell>
        <mxCell id="tFWXHqorwcY2-bB6QDaT-6" value="&lt;b&gt;Question 1 (questionID):&lt;/b&gt;&lt;div&gt;How does RAG AI work?&lt;/div&gt;&lt;div&gt;&lt;br&gt;&lt;/div&gt;&lt;div&gt;Candidate Answer: &amp;lt;blah blah&amp;gt;&lt;/div&gt;" style="rounded=0;whiteSpace=wrap;html=1;align=left;horizontal=1;verticalAlign=top;" vertex="1" parent="1">
          <mxGeometry x="215" y="150" width="280" height="120" as="geometry" />
        </mxCell>
        <mxCell id="tFWXHqorwcY2-bB6QDaT-7" value="&lt;b&gt;Question 2&amp;nbsp;&lt;/b&gt;&lt;b&gt;questionID&lt;/b&gt;&lt;b&gt;:&lt;/b&gt;&lt;div&gt;What is Observability in RAG?&lt;/div&gt;&lt;div&gt;&lt;br&gt;&lt;/div&gt;&lt;div&gt;Candidate Answer: &amp;lt;blah blah&amp;gt;&lt;br&gt;&lt;/div&gt;&lt;div&gt;&lt;div&gt;&lt;br&gt;&lt;/div&gt;&lt;/div&gt;" style="rounded=0;whiteSpace=wrap;html=1;align=left;horizontal=1;verticalAlign=top;" vertex="1" parent="1">
          <mxGeometry x="215" y="280" width="280" height="120" as="geometry" />
        </mxCell>
        <mxCell id="tFWXHqorwcY2-bB6QDaT-8" value="&lt;b&gt;Question 3:&lt;/b&gt;&lt;div&gt;Explain tokenization in relation to AI&lt;/div&gt;&lt;div&gt;&lt;br&gt;&lt;/div&gt;&lt;div&gt;Candidate Answer: &amp;lt;blah blah&amp;gt;&lt;br&gt;&lt;/div&gt;" style="rounded=0;whiteSpace=wrap;html=1;align=left;horizontal=1;verticalAlign=top;" vertex="1" parent="1">
          <mxGeometry x="215" y="410" width="280" height="120" as="geometry" />
        </mxCell>
        <mxCell id="tFWXHqorwcY2-bB6QDaT-20" style="edgeStyle=orthogonalEdgeStyle;rounded=0;orthogonalLoop=1;jettySize=auto;html=1;entryX=0.25;entryY=0;entryDx=0;entryDy=0;" edge="1" parent="1" source="tFWXHqorwcY2-bB6QDaT-9" target="tFWXHqorwcY2-bB6QDaT-15">
          <mxGeometry relative="1" as="geometry" />
        </mxCell>
        <mxCell id="tFWXHqorwcY2-bB6QDaT-9" value="&lt;b&gt;&lt;font style=&quot;font-size: 14px;&quot;&gt;NORMALIZED AI CANDIDATE EXAM DATA&lt;/font&gt;&lt;/b&gt;&lt;div&gt;&lt;b&gt;&lt;font style=&quot;font-size: 14px;&quot;&gt;&lt;br&gt;&lt;/font&gt;&lt;/b&gt;&lt;/div&gt;&lt;div&gt;&lt;b&gt;&lt;font style=&quot;font-size: 14px;&quot;&gt;**One record per question&lt;/font&gt;&lt;/b&gt;&lt;/div&gt;&lt;div style=&quot;text-align: left;&quot;&gt;&lt;b&gt;&lt;font style=&quot;font-size: 14px;&quot;&gt;&lt;br&gt;&lt;/font&gt;&lt;/b&gt;&lt;/div&gt;" style="rounded=1;whiteSpace=wrap;html=1;verticalAlign=top;" vertex="1" parent="1">
          <mxGeometry x="1170" y="90" width="390" height="500" as="geometry" />
        </mxCell>
        <mxCell id="tFWXHqorwcY2-bB6QDaT-19" style="edgeStyle=orthogonalEdgeStyle;rounded=0;orthogonalLoop=1;jettySize=auto;html=1;entryX=0;entryY=0.5;entryDx=0;entryDy=0;" edge="1" parent="1" source="tFWXHqorwcY2-bB6QDaT-10" target="tFWXHqorwcY2-bB6QDaT-9">
          <mxGeometry relative="1" as="geometry" />
        </mxCell>
        <mxCell id="tFWXHqorwcY2-bB6QDaT-10" value="&lt;div style=&quot;text-align: left;&quot;&gt;&lt;b style=&quot;background-color: initial;&quot;&gt;&amp;nbsp; &amp;nbsp; &amp;nbsp; &amp;nbsp; &amp;nbsp; &amp;nbsp; &amp;nbsp; &amp;nbsp; &amp;nbsp; &amp;nbsp; &amp;nbsp; &amp;nbsp; &amp;nbsp; DATA PIPELINE&lt;/b&gt;&lt;/div&gt;&lt;div&gt;&lt;ul&gt;&lt;li style=&quot;text-align: left;&quot;&gt;Take candidate exam&lt;/li&gt;&lt;li style=&quot;text-align: left;&quot;&gt;Format / Normalize data (split by question)&lt;/li&gt;&lt;/ul&gt;&lt;/div&gt;" style="shape=process;whiteSpace=wrap;html=1;backgroundOutline=1;verticalAlign=top;align=center;" vertex="1" parent="1">
          <mxGeometry x="650" y="245" width="360" height="190" as="geometry" />
        </mxCell>
        <mxCell id="tFWXHqorwcY2-bB6QDaT-11" value="&lt;b&gt;CandidateID: 12345&lt;/b&gt;&lt;div&gt;&lt;b&gt;examID: 9999999&lt;br&gt;&lt;/b&gt;&lt;div&gt;&lt;b&gt;QuestionID: question1&lt;/b&gt;&lt;/div&gt;&lt;div&gt;&lt;b&gt;Candidate Answer: &amp;lt;answer&amp;gt;&lt;/b&gt;&lt;/div&gt;&lt;div&gt;&lt;b&gt;&lt;br&gt;&lt;/b&gt;&lt;/div&gt;&lt;/div&gt;" style="rounded=0;whiteSpace=wrap;html=1;align=left;horizontal=1;verticalAlign=top;" vertex="1" parent="1">
          <mxGeometry x="1225" y="160" width="280" height="120" as="geometry" />
        </mxCell>
        <mxCell id="tFWXHqorwcY2-bB6QDaT-12" value="&lt;div&gt;&lt;div&gt;&lt;b&gt;CandidateID: 12345&lt;/b&gt;&lt;div&gt;&lt;b&gt;QuestionID: question2&lt;/b&gt;&lt;/div&gt;&lt;div&gt;&lt;b&gt;Candidate Answer: &amp;lt;answer&amp;gt;&lt;/b&gt;&lt;/div&gt;&lt;/div&gt;&lt;/div&gt;&lt;div&gt;&lt;b&gt;&lt;br&gt;&lt;/b&gt;&lt;/div&gt;" style="rounded=0;whiteSpace=wrap;html=1;align=left;horizontal=1;verticalAlign=top;" vertex="1" parent="1">
          <mxGeometry x="1225" y="290" width="280" height="120" as="geometry" />
        </mxCell>
        <mxCell id="tFWXHqorwcY2-bB6QDaT-13" value="&lt;div&gt;&lt;b&gt;CandidateID: 12345&lt;/b&gt;&lt;div&gt;&lt;b&gt;QuestionID: question3&lt;/b&gt;&lt;/div&gt;&lt;div&gt;&lt;b&gt;Candidate Answer: &amp;lt;answer&amp;gt;&lt;/b&gt;&lt;/div&gt;&lt;/div&gt;&lt;div&gt;&lt;b&gt;&lt;br&gt;&lt;/b&gt;&lt;/div&gt;" style="rounded=0;whiteSpace=wrap;html=1;align=left;horizontal=1;verticalAlign=top;" vertex="1" parent="1">
          <mxGeometry x="1225" y="420" width="280" height="120" as="geometry" />
        </mxCell>
        <mxCell id="tFWXHqorwcY2-bB6QDaT-23" style="edgeStyle=orthogonalEdgeStyle;rounded=0;orthogonalLoop=1;jettySize=auto;html=1;entryX=0;entryY=0.5;entryDx=0;entryDy=0;" edge="1" parent="1" source="tFWXHqorwcY2-bB6QDaT-15" target="tFWXHqorwcY2-bB6QDaT-22">
          <mxGeometry relative="1" as="geometry" />
        </mxCell>
        <mxCell id="tFWXHqorwcY2-bB6QDaT-15" value="&lt;div style=&quot;text-align: left;&quot;&gt;&lt;b style=&quot;background-color: initial;&quot;&gt;&amp;nbsp; &amp;nbsp; &amp;nbsp; &amp;nbsp; &amp;nbsp; &amp;nbsp; &amp;nbsp; &amp;nbsp; &amp;nbsp; &amp;nbsp; &amp;nbsp; &amp;nbsp; &amp;nbsp; AI ANALYSIS PIPELINE&lt;/b&gt;&lt;/div&gt;&lt;div&gt;&lt;ul&gt;&lt;li style=&quot;text-align: left;&quot;&gt;Take Normalized AI Candidate Exam Data&lt;/li&gt;&lt;li style=&quot;text-align: left;&quot;&gt;Create embeddings for the candidate answer&lt;/li&gt;&lt;li style=&quot;text-align: left;&quot;&gt;Send query to indexer&lt;/li&gt;&lt;li style=&quot;text-align: left;&quot;&gt;indexer returns ranked similarity responses&lt;/li&gt;&lt;ul&gt;&lt;li style=&quot;text-align: left;&quot;&gt;Response:&amp;nbsp;&lt;/li&gt;&lt;li style=&quot;text-align: left;&quot;&gt;Embedding: [12034912, 120349120934, 1041023491]&lt;br&gt;&lt;/li&gt;&lt;li style=&quot;text-align: left;&quot;&gt;Similarity / Accuracy: 90%&lt;/li&gt;&lt;/ul&gt;&lt;/ul&gt;&lt;div style=&quot;text-align: left;&quot;&gt;&lt;br&gt;&lt;/div&gt;&lt;/div&gt;" style="shape=process;whiteSpace=wrap;html=1;backgroundOutline=1;verticalAlign=top;align=center;" vertex="1" parent="1">
          <mxGeometry x="1400" y="710" width="360" height="280" as="geometry" />
        </mxCell>
        <mxCell id="tFWXHqorwcY2-bB6QDaT-25" style="edgeStyle=orthogonalEdgeStyle;rounded=0;orthogonalLoop=1;jettySize=auto;html=1;entryX=0.5;entryY=1;entryDx=0;entryDy=0;" edge="1" parent="1" source="tFWXHqorwcY2-bB6QDaT-22" target="tFWXHqorwcY2-bB6QDaT-24">
          <mxGeometry relative="1" as="geometry" />
        </mxCell>
        <mxCell id="tFWXHqorwcY2-bB6QDaT-22" value="&lt;b&gt;LLM PROCESSING&lt;/b&gt;&lt;div&gt;&lt;b&gt;&lt;br&gt;&lt;/b&gt;&lt;/div&gt;&lt;div&gt;&lt;ul&gt;&lt;li style=&quot;text-align: left;&quot;&gt;Take indexer response&amp;nbsp;&lt;/li&gt;&lt;li style=&quot;text-align: left;&quot;&gt;Send prompt and response to LLM to create human readable answer&lt;/li&gt;&lt;ul&gt;&lt;li style=&quot;text-align: left;&quot;&gt;PROMPT:&lt;/li&gt;&lt;li style=&quot;text-align: left;&quot;&gt;Using &amp;lt;questionID, Associated Concepts, Grading Criteria, Acceptable Answers, etc.&amp;gt;&lt;/li&gt;&lt;li style=&quot;text-align: left;&quot;&gt;Given the candidates &amp;lt;answer&amp;gt;, provide feedback on accuracy, correctness, and understanding of their answer to the &amp;lt;questionID&amp;gt;.&lt;/li&gt;&lt;/ul&gt;&lt;li style=&quot;text-align: left;&quot;&gt;Save answer to AI Graded Database for review by an expert&lt;/li&gt;&lt;/ul&gt;&lt;/div&gt;" style="shape=process;whiteSpace=wrap;html=1;backgroundOutline=1;verticalAlign=top;align=center;" vertex="1" parent="1">
          <mxGeometry x="1930" y="710" width="360" height="280" as="geometry" />
        </mxCell>
        <mxCell id="tFWXHqorwcY2-bB6QDaT-29" style="edgeStyle=orthogonalEdgeStyle;rounded=0;orthogonalLoop=1;jettySize=auto;html=1;entryX=0;entryY=0.5;entryDx=0;entryDy=0;" edge="1" parent="1" source="tFWXHqorwcY2-bB6QDaT-24" target="tFWXHqorwcY2-bB6QDaT-30">
          <mxGeometry relative="1" as="geometry">
            <mxPoint x="2870" y="340" as="targetPoint" />
          </mxGeometry>
        </mxCell>
        <mxCell id="tFWXHqorwcY2-bB6QDaT-24" value="&lt;b&gt;&lt;font style=&quot;font-size: 14px;&quot;&gt;AI GRADED CANDIDATE DATABASE&lt;/font&gt;&lt;/b&gt;&lt;div&gt;&lt;b&gt;&lt;font style=&quot;font-size: 14px;&quot;&gt;&lt;br&gt;&lt;/font&gt;&lt;/b&gt;&lt;/div&gt;&lt;div&gt;&lt;b&gt;&lt;font style=&quot;font-size: 14px;&quot;&gt;&lt;br&gt;&lt;/font&gt;&lt;/b&gt;&lt;/div&gt;&lt;div style=&quot;text-align: left;&quot;&gt;&lt;b&gt;&lt;font style=&quot;font-size: 14px;&quot;&gt;&lt;br&gt;&lt;/font&gt;&lt;/b&gt;&lt;/div&gt;" style="rounded=1;whiteSpace=wrap;html=1;verticalAlign=top;" vertex="1" parent="1">
          <mxGeometry x="2440" y="90" width="390" height="500" as="geometry" />
        </mxCell>
        <mxCell id="tFWXHqorwcY2-bB6QDaT-26" value="&lt;b&gt;CandidateID: 12345&lt;/b&gt;&lt;div&gt;&lt;b style=&quot;background-color: initial;&quot;&gt;Response records for examID: 999999&lt;/b&gt;&lt;br&gt;&lt;/div&gt;&lt;div&gt;&lt;b style=&quot;background-color: initial;&quot;&gt;&lt;br&gt;&lt;/b&gt;&lt;/div&gt;&lt;div&gt;&lt;b&gt;&amp;lt;question1 data: include accuracy information&lt;/b&gt;&lt;/div&gt;&lt;div&gt;&lt;b&gt;&amp;lt;question2 data&amp;gt;&lt;/b&gt;&lt;/div&gt;&lt;div&gt;&lt;b&gt;&amp;lt;question3 data&amp;gt;&lt;/b&gt;&lt;/div&gt;" style="rounded=0;whiteSpace=wrap;html=1;align=left;horizontal=1;verticalAlign=top;" vertex="1" parent="1">
          <mxGeometry x="2495" y="160" width="280" height="120" as="geometry" />
        </mxCell>
        <mxCell id="tFWXHqorwcY2-bB6QDaT-36" style="edgeStyle=orthogonalEdgeStyle;rounded=0;orthogonalLoop=1;jettySize=auto;html=1;entryX=0;entryY=0.5;entryDx=0;entryDy=0;" edge="1" parent="1" source="tFWXHqorwcY2-bB6QDaT-30" target="tFWXHqorwcY2-bB6QDaT-35">
          <mxGeometry relative="1" as="geometry" />
        </mxCell>
        <mxCell id="tFWXHqorwcY2-bB6QDaT-30" value="&lt;b&gt;EXPERT REVIEW&lt;/b&gt;" style="shape=process;whiteSpace=wrap;html=1;backgroundOutline=1;verticalAlign=top;align=center;" vertex="1" parent="1">
          <mxGeometry x="2920" y="200" width="430" height="280" as="geometry" />
        </mxCell>
        <mxCell id="tFWXHqorwcY2-bB6QDaT-31" value="&lt;b&gt;Question 1: question1&lt;/b&gt;&lt;div&gt;&lt;b&gt;VERSION 2&lt;/b&gt;&lt;div&gt;How does RAG AI work?&lt;/div&gt;&lt;div&gt;&lt;span style=&quot;background-color: initial;&quot;&gt;DateAdded: 02/02/1990&lt;/span&gt;&lt;br&gt;&lt;/div&gt;&lt;div&gt;&lt;span style=&quot;background-color: initial;&quot;&gt;Grading Criteria / Rubric:&lt;/span&gt;&lt;/div&gt;&lt;div&gt;&lt;span style=&quot;background-color: initial;&quot;&gt;Associated Conepts:&amp;nbsp; LLM, RAG, AI, etc&lt;/span&gt;&lt;br&gt;&lt;/div&gt;&lt;div&gt;&lt;span style=&quot;background-color: initial;&quot;&gt;Accepted Solution Information: [&lt;/span&gt;&lt;/div&gt;&lt;div&gt;&amp;nbsp; Answer1:&amp;nbsp; English is a language&lt;/div&gt;&lt;div&gt;&amp;nbsp; Answer2:&amp;nbsp; A language is English&lt;/div&gt;&lt;div&gt;&amp;nbsp; Answer3: One of the languags is English&lt;/div&gt;&lt;div&gt;&lt;span style=&quot;background-color: initial;&quot;&gt;]&lt;/span&gt;&lt;/div&gt;&lt;div&gt;&lt;span style=&quot;background-color: initial;&quot;&gt;Embedding: [12034912, 120349120934, 1041023491, etc...]&lt;/span&gt;&lt;br&gt;&lt;/div&gt;&lt;div&gt;&lt;br&gt;&lt;/div&gt;&lt;/div&gt;" style="rounded=0;whiteSpace=wrap;html=1;align=left;horizontal=1;verticalAlign=top;" vertex="1" parent="1">
          <mxGeometry x="1980" y="20" width="280" height="200" as="geometry" />
        </mxCell>
        <mxCell id="tFWXHqorwcY2-bB6QDaT-32" value="&lt;b&gt;CandidateID: 56789&lt;/b&gt;&lt;div&gt;&lt;b&gt;&lt;br&gt;&lt;/b&gt;&lt;/div&gt;&lt;div&gt;&lt;b&gt;Response records:&lt;/b&gt;&lt;/div&gt;&lt;div&gt;&lt;b&gt;&amp;lt;question1 data&amp;gt;&lt;/b&gt;&lt;/div&gt;&lt;div&gt;&lt;b&gt;&amp;lt;question2 data&amp;gt;&lt;/b&gt;&lt;/div&gt;&lt;div&gt;&lt;b&gt;&amp;lt;question3 data&amp;gt;&lt;/b&gt;&lt;/div&gt;" style="rounded=0;whiteSpace=wrap;html=1;align=left;horizontal=1;verticalAlign=top;" vertex="1" parent="1">
          <mxGeometry x="2495" y="305" width="280" height="120" as="geometry" />
        </mxCell>
        <mxCell id="tFWXHqorwcY2-bB6QDaT-33" value="&lt;b&gt;CandidateID: 99999&lt;/b&gt;&lt;div&gt;&lt;b&gt;&lt;br&gt;&lt;/b&gt;&lt;/div&gt;&lt;div&gt;&lt;b&gt;Response records:&lt;/b&gt;&lt;/div&gt;&lt;div&gt;&lt;b&gt;&amp;lt;question1 data&amp;gt;&lt;/b&gt;&lt;/div&gt;&lt;div&gt;&lt;b&gt;&amp;lt;question2 data&amp;gt;&lt;/b&gt;&lt;/div&gt;&lt;div&gt;&lt;b&gt;&amp;lt;question3 data&amp;gt;&lt;/b&gt;&lt;/div&gt;" style="rounded=0;whiteSpace=wrap;html=1;align=left;horizontal=1;verticalAlign=top;" vertex="1" parent="1">
          <mxGeometry x="2495" y="450" width="280" height="120" as="geometry" />
        </mxCell>
        <mxCell id="tFWXHqorwcY2-bB6QDaT-41" style="edgeStyle=orthogonalEdgeStyle;rounded=0;orthogonalLoop=1;jettySize=auto;html=1;entryX=0;entryY=0.5;entryDx=0;entryDy=0;" edge="1" parent="1" source="tFWXHqorwcY2-bB6QDaT-35" target="tFWXHqorwcY2-bB6QDaT-40">
          <mxGeometry relative="1" as="geometry" />
        </mxCell>
        <mxCell id="tFWXHqorwcY2-bB6QDaT-35" value="&lt;b&gt;&lt;font style=&quot;font-size: 14px;&quot;&gt;EXPERT GRADED EXAM DATABASE&lt;/font&gt;&lt;/b&gt;&lt;div&gt;&lt;b&gt;&lt;font style=&quot;font-size: 14px;&quot;&gt;&lt;br&gt;&lt;/font&gt;&lt;/b&gt;&lt;/div&gt;&lt;div&gt;&lt;b&gt;&lt;font style=&quot;font-size: 14px;&quot;&gt;&lt;br&gt;&lt;/font&gt;&lt;/b&gt;&lt;/div&gt;&lt;div style=&quot;text-align: left;&quot;&gt;&lt;b&gt;&lt;font style=&quot;font-size: 14px;&quot;&gt;&lt;br&gt;&lt;/font&gt;&lt;/b&gt;&lt;/div&gt;" style="rounded=1;whiteSpace=wrap;html=1;verticalAlign=top;" vertex="1" parent="1">
          <mxGeometry x="3450" y="90" width="390" height="500" as="geometry" />
        </mxCell>
        <mxCell id="tFWXHqorwcY2-bB6QDaT-37" value="&lt;b&gt;CandidateID: 12345&lt;/b&gt;&lt;div&gt;&lt;b&gt;&lt;br&gt;&lt;/b&gt;&lt;/div&gt;&lt;div&gt;&lt;b&gt;Response records for examID: 999999&lt;/b&gt;&lt;/div&gt;&lt;div&gt;&lt;b&gt;&amp;lt;question1 data&amp;gt;&lt;/b&gt;&lt;/div&gt;&lt;div&gt;&lt;b&gt;**Expert can add their own feedback**&lt;/b&gt;&lt;/div&gt;&lt;div&gt;&lt;b&gt;&lt;br&gt;&lt;/b&gt;&lt;/div&gt;&lt;div&gt;&lt;b&gt;&amp;lt;question2 data&amp;gt;&lt;/b&gt;&lt;/div&gt;&lt;div&gt;&lt;b&gt;**Expert can add their own feedback**&lt;/b&gt;&lt;b&gt;&lt;br&gt;&lt;/b&gt;&lt;/div&gt;&lt;div&gt;&lt;b&gt;&lt;br&gt;&lt;/b&gt;&lt;/div&gt;&lt;div&gt;&lt;b&gt;&amp;lt;question3 data&amp;gt;&lt;/b&gt;&lt;/div&gt;&lt;div&gt;&lt;b&gt;**Expert can add their own feedback**&lt;/b&gt;&lt;b&gt;&lt;br&gt;&lt;/b&gt;&lt;/div&gt;" style="rounded=0;whiteSpace=wrap;html=1;align=left;horizontal=1;verticalAlign=top;" vertex="1" parent="1">
          <mxGeometry x="2990" y="245" width="280" height="180" as="geometry" />
        </mxCell>
        <mxCell id="tFWXHqorwcY2-bB6QDaT-38" value="&lt;b&gt;CandidateID: 12345&lt;/b&gt;&lt;div&gt;&lt;b&gt;&lt;br&gt;&lt;/b&gt;&lt;/div&gt;&lt;div&gt;&lt;b&gt;Response records for examID: 999999&lt;/b&gt;&lt;/div&gt;&lt;div&gt;&lt;b&gt;&amp;lt;question1 data&amp;gt;&lt;/b&gt;&lt;/div&gt;&lt;div&gt;&lt;b&gt;&amp;lt;finalized Candidate Feedback&amp;gt;&lt;/b&gt;&lt;/div&gt;&lt;div&gt;&lt;b&gt;&lt;br&gt;&lt;/b&gt;&lt;/div&gt;&lt;div&gt;&lt;b&gt;&amp;lt;question2 data&amp;gt;&lt;/b&gt;&lt;/div&gt;&lt;div&gt;&lt;b&gt;&amp;lt;finalized Candidate Feedback&amp;gt;&lt;/b&gt;&lt;b&gt;&lt;br&gt;&lt;/b&gt;&lt;/div&gt;&lt;div&gt;&lt;b&gt;&lt;br&gt;&lt;/b&gt;&lt;/div&gt;&lt;div&gt;&lt;b&gt;&amp;lt;question3 data&amp;gt;&lt;/b&gt;&lt;/div&gt;&lt;div&gt;&lt;b&gt;&amp;lt;finalized Candidate Feedback&amp;gt;&lt;/b&gt;&lt;b&gt;&lt;br&gt;&lt;/b&gt;&lt;/div&gt;" style="rounded=0;whiteSpace=wrap;html=1;align=left;horizontal=1;verticalAlign=top;" vertex="1" parent="1">
          <mxGeometry x="3520" y="140" width="280" height="180" as="geometry" />
        </mxCell>
        <mxCell id="tFWXHqorwcY2-bB6QDaT-40" value="&lt;b&gt;CANDIDATE EMAIL SERVICE:&lt;/b&gt;&lt;div&gt;&lt;b&gt;GENERATION / FORMATTING / SENDING OF EMAILS&lt;/b&gt;&lt;/div&gt;&lt;div&gt;&lt;ul&gt;&lt;li style=&quot;text-align: left;&quot;&gt;&lt;b&gt;Take Expert Graded Exam record&lt;/b&gt;&lt;/li&gt;&lt;li style=&quot;text-align: left;&quot;&gt;&lt;b&gt;Apply any formatting needed&lt;/b&gt;&lt;/li&gt;&lt;li style=&quot;text-align: left;&quot;&gt;&lt;b&gt;Send to candidateID&#39;s email address&lt;/b&gt;&lt;/li&gt;&lt;/ul&gt;&lt;/div&gt;" style="shape=process;whiteSpace=wrap;html=1;backgroundOutline=1;verticalAlign=top;align=center;" vertex="1" parent="1">
          <mxGeometry x="4010" y="200" width="430" height="280" as="geometry" />
        </mxCell>
        <mxCell id="tFWXHqorwcY2-bB6QDaT-42" value="&lt;b&gt;CANDIDATE&lt;/b&gt;" style="shape=umlActor;verticalLabelPosition=bottom;verticalAlign=top;html=1;outlineConnect=0;" vertex="1" parent="1">
          <mxGeometry x="4660" y="220" width="150" height="240" as="geometry" />
        </mxCell>
        <mxCell id="tFWXHqorwcY2-bB6QDaT-43" style="edgeStyle=orthogonalEdgeStyle;rounded=0;orthogonalLoop=1;jettySize=auto;html=1;entryX=0.5;entryY=0.5;entryDx=0;entryDy=0;entryPerimeter=0;" edge="1" parent="1" source="tFWXHqorwcY2-bB6QDaT-40" target="tFWXHqorwcY2-bB6QDaT-42">
          <mxGeometry relative="1" as="geometry" />
        </mxCell>
        <mxCell id="tFWXHqorwcY2-bB6QDaT-44" value="&lt;b&gt;&lt;font style=&quot;font-size: 18px;&quot;&gt;EMAIL&lt;/font&gt;&lt;/b&gt;" style="edgeLabel;html=1;align=center;verticalAlign=middle;resizable=0;points=[];" vertex="1" connectable="0" parent="tFWXHqorwcY2-bB6QDaT-43">
          <mxGeometry x="0.0147" y="-5" relative="1" as="geometry">
            <mxPoint x="-9" y="-25" as="offset" />
          </mxGeometry>
        </mxCell>
        <mxCell id="tFWXHqorwcY2-bB6QDaT-48" value="&lt;b&gt;CANDIDATE&lt;/b&gt;" style="shape=umlActor;verticalLabelPosition=bottom;verticalAlign=top;html=1;outlineConnect=0;" vertex="1" parent="1">
          <mxGeometry x="40" y="260" width="30" height="60" as="geometry" />
        </mxCell>
        <mxCell id="tFWXHqorwcY2-bB6QDaT-49" style="edgeStyle=orthogonalEdgeStyle;rounded=0;orthogonalLoop=1;jettySize=auto;html=1;entryX=-0.011;entryY=0.39;entryDx=0;entryDy=0;entryPerimeter=0;" edge="1" parent="1" source="tFWXHqorwcY2-bB6QDaT-48" target="tFWXHqorwcY2-bB6QDaT-5">
          <mxGeometry relative="1" as="geometry" />
        </mxCell>
        <mxCell id="IY74Jo-S-gYB8LGB8uRn-14" style="edgeStyle=orthogonalEdgeStyle;rounded=0;orthogonalLoop=1;jettySize=auto;html=1;entryX=0;entryY=0.5;entryDx=0;entryDy=0;" edge="1" parent="1" source="H5Y2XBprJAJDp06BuAl5-1" target="IY74Jo-S-gYB8LGB8uRn-12">
          <mxGeometry relative="1" as="geometry" />
        </mxCell>
        <mxCell id="H5Y2XBprJAJDp06BuAl5-1" value="&lt;b&gt;ADMIN&lt;/b&gt;" style="shape=umlActor;verticalLabelPosition=bottom;verticalAlign=top;html=1;outlineConnect=0;" vertex="1" parent="1">
          <mxGeometry x="1210" y="-1215" width="150" height="240" as="geometry" />
        </mxCell>
        <mxCell id="IY74Jo-S-gYB8LGB8uRn-2" style="edgeStyle=orthogonalEdgeStyle;rounded=0;orthogonalLoop=1;jettySize=auto;html=1;entryX=0;entryY=0.25;entryDx=0;entryDy=0;" edge="1" parent="1" source="H5Y2XBprJAJDp06BuAl5-5" target="IY74Jo-S-gYB8LGB8uRn-1">
          <mxGeometry relative="1" as="geometry" />
        </mxCell>
        <mxCell id="H5Y2XBprJAJDp06BuAl5-5" value="&lt;div style=&quot;text-align: left;&quot;&gt;&lt;b style=&quot;background-color: initial;&quot;&gt;&amp;nbsp; &amp;nbsp; &amp;nbsp; &amp;nbsp; &amp;nbsp; &amp;nbsp; &amp;nbsp; &amp;nbsp; &amp;nbsp; &amp;nbsp; EXAM QUESTION PIPELINE&lt;/b&gt;&lt;/div&gt;&lt;div&gt;&lt;ul&gt;&lt;li style=&quot;text-align: left;&quot;&gt;&lt;span style=&quot;background-color: initial;&quot;&gt;Format / Normalize data (split by question)&lt;/span&gt;&lt;br&gt;&lt;/li&gt;&lt;/ul&gt;&lt;/div&gt;" style="shape=process;whiteSpace=wrap;html=1;backgroundOutline=1;verticalAlign=top;align=center;" vertex="1" parent="1">
          <mxGeometry x="1840" y="-1190" width="360" height="190" as="geometry" />
        </mxCell>
        <mxCell id="IY74Jo-S-gYB8LGB8uRn-10" style="edgeStyle=orthogonalEdgeStyle;rounded=0;orthogonalLoop=1;jettySize=auto;html=1;entryX=0.5;entryY=0;entryDx=0;entryDy=0;" edge="1" parent="1" source="IY74Jo-S-gYB8LGB8uRn-1" target="IY74Jo-S-gYB8LGB8uRn-9">
          <mxGeometry relative="1" as="geometry" />
        </mxCell>
        <mxCell id="IY74Jo-S-gYB8LGB8uRn-1" value="&lt;b&gt;&lt;font style=&quot;font-size: 14px;&quot;&gt;RAW ANSWER KEY / QUESTION DATABASE&amp;nbsp;&lt;/font&gt;&lt;/b&gt;&lt;div&gt;&lt;b&gt;&lt;font style=&quot;font-size: 14px;&quot;&gt;&lt;br&gt;&lt;/font&gt;&lt;/b&gt;&lt;/div&gt;&lt;div&gt;&lt;br&gt;&lt;/div&gt;&lt;div&gt;&lt;br&gt;&lt;/div&gt;&lt;div&gt;&lt;br&gt;&lt;/div&gt;" style="rounded=1;whiteSpace=wrap;html=1;verticalAlign=top;" vertex="1" parent="1">
          <mxGeometry x="2360" y="-1240" width="640" height="550" as="geometry" />
        </mxCell>
        <mxCell id="IY74Jo-S-gYB8LGB8uRn-5" value="&lt;b&gt;QuestionID: question1&lt;/b&gt;&lt;div&gt;&lt;div&gt;How does RAG AI work?&lt;/div&gt;&lt;div&gt;&lt;span style=&quot;background-color: initial;&quot;&gt;DateAdded: 02/02/1990&lt;/span&gt;&lt;br&gt;&lt;/div&gt;&lt;div&gt;Author&lt;/div&gt;&lt;div&gt;Version: 1&lt;/div&gt;&lt;div&gt;&lt;span style=&quot;background-color: initial;&quot;&gt;Grading Criteria / Rubric:&lt;/span&gt;&lt;/div&gt;&lt;div&gt;Associated Conepts:&amp;nbsp; LLM, RAG, AI, etc&lt;/div&gt;&lt;div&gt;Accepted Solution Information:&amp;nbsp; &amp;lt;good answers&amp;gt;&lt;/div&gt;&lt;/div&gt;" style="rounded=0;whiteSpace=wrap;html=1;align=left;horizontal=1;verticalAlign=top;" vertex="1" parent="1">
          <mxGeometry x="2380" y="-1140" width="280" height="120" as="geometry" />
        </mxCell>
        <mxCell id="IY74Jo-S-gYB8LGB8uRn-6" value="&lt;b&gt;Question 2:&lt;/b&gt;&lt;div&gt;What is Observability in RAG?&lt;/div&gt;&lt;div&gt;&lt;div&gt;&lt;span style=&quot;background-color: initial;&quot;&gt;DateAdded: 02/02/1990&lt;/span&gt;&lt;br&gt;&lt;/div&gt;&lt;div&gt;Author&lt;/div&gt;&lt;div&gt;Version&lt;/div&gt;&lt;div&gt;Grading Criteria / Rubric:&lt;/div&gt;&lt;div&gt;Associated Conepts:&amp;nbsp; LLM, RAG, AI, etc&lt;/div&gt;&lt;div&gt;Accepted Solution Information:&amp;nbsp; &amp;lt;good answers&amp;gt;&lt;/div&gt;&lt;/div&gt;" style="rounded=0;whiteSpace=wrap;html=1;align=left;horizontal=1;verticalAlign=top;" vertex="1" parent="1">
          <mxGeometry x="2380" y="-1000" width="280" height="120" as="geometry" />
        </mxCell>
        <mxCell id="IY74Jo-S-gYB8LGB8uRn-7" value="&lt;b&gt;Question 3:&lt;/b&gt;&lt;div&gt;Explain tokenization in relation to AI&lt;/div&gt;&lt;div&gt;&lt;div&gt;&lt;span style=&quot;background-color: initial;&quot;&gt;DateAdded: 02/02/1990&lt;/span&gt;&lt;br&gt;&lt;/div&gt;&lt;div&gt;&lt;div&gt;Author&lt;/div&gt;&lt;div&gt;Version&lt;/div&gt;&lt;div&gt;Grading Criteria / Rubric:&lt;/div&gt;&lt;div&gt;Associated Conepts:&amp;nbsp; LLM, RAG, AI, etc&lt;/div&gt;&lt;div&gt;Accepted Solution Information:&amp;nbsp; &amp;lt;good answers&amp;gt;&lt;/div&gt;&lt;/div&gt;&lt;/div&gt;" style="rounded=0;whiteSpace=wrap;html=1;align=left;horizontal=1;verticalAlign=top;" vertex="1" parent="1">
          <mxGeometry x="2380" y="-870" width="280" height="120" as="geometry" />
        </mxCell>
        <mxCell id="IY74Jo-S-gYB8LGB8uRn-8" value="&lt;b&gt;Question 1: question1&lt;/b&gt;&lt;div&gt;&lt;div&gt;How does RAG AI work?&lt;/div&gt;&lt;div&gt;&lt;div&gt;Author&lt;/div&gt;&lt;div&gt;Version: 2&lt;/div&gt;&lt;div&gt;Grading Criteria / Rubric:&lt;/div&gt;&lt;div&gt;Associated Conepts:&amp;nbsp; LLM, RAG, AI, etc&lt;/div&gt;&lt;div&gt;Accepted Solution Information:&amp;nbsp; &amp;lt;good answers&amp;gt;&lt;/div&gt;&lt;/div&gt;&lt;/div&gt;" style="rounded=0;whiteSpace=wrap;html=1;align=left;horizontal=1;verticalAlign=top;" vertex="1" parent="1">
          <mxGeometry x="2690" y="-1140" width="280" height="120" as="geometry" />
        </mxCell>
        <mxCell id="IY74Jo-S-gYB8LGB8uRn-11" style="edgeStyle=orthogonalEdgeStyle;rounded=0;orthogonalLoop=1;jettySize=auto;html=1;entryX=0.5;entryY=0;entryDx=0;entryDy=0;" edge="1" parent="1" source="IY74Jo-S-gYB8LGB8uRn-9" target="tFWXHqorwcY2-bB6QDaT-4">
          <mxGeometry relative="1" as="geometry" />
        </mxCell>
        <mxCell id="IY74Jo-S-gYB8LGB8uRn-9" value="&lt;div style=&quot;text-align: left;&quot;&gt;&lt;b style=&quot;background-color: initial;&quot;&gt;&amp;nbsp; &amp;nbsp; &amp;nbsp; &amp;nbsp; &amp;nbsp; &amp;nbsp; &amp;nbsp; &amp;nbsp;QUESTION/ANSWER DATA PIPELINE&lt;/b&gt;&lt;/div&gt;&lt;div&gt;&lt;ul&gt;&lt;li style=&quot;text-align: left;&quot;&gt;Take Normalized Raw Question/Answer Key Data&lt;/li&gt;&lt;li style=&quot;text-align: left;&quot;&gt;Create embeddings for the question/answers&lt;/li&gt;&lt;li style=&quot;text-align: left;&quot;&gt;Create / Delete Index&lt;/li&gt;&lt;ul&gt;&lt;li style=&quot;text-align: left;&quot;&gt;&lt;span style=&quot;background-color: initial;&quot;&gt;Add / Upsert / Delete data to index&lt;/span&gt;&lt;/li&gt;&lt;/ul&gt;&lt;/ul&gt;&lt;/div&gt;" style="shape=process;whiteSpace=wrap;html=1;backgroundOutline=1;verticalAlign=top;align=center;" vertex="1" parent="1">
          <mxGeometry x="1785" y="-570" width="360" height="170" as="geometry" />
        </mxCell>
        <mxCell id="IY74Jo-S-gYB8LGB8uRn-13" style="edgeStyle=orthogonalEdgeStyle;rounded=0;orthogonalLoop=1;jettySize=auto;html=1;entryX=0;entryY=0.5;entryDx=0;entryDy=0;" edge="1" parent="1" source="IY74Jo-S-gYB8LGB8uRn-12" target="H5Y2XBprJAJDp06BuAl5-5">
          <mxGeometry relative="1" as="geometry" />
        </mxCell>
        <mxCell id="IY74Jo-S-gYB8LGB8uRn-12" value="&lt;b&gt;&lt;font style=&quot;font-size: 16px;&quot;&gt;Admin UI&lt;/font&gt;&lt;/b&gt;&lt;div&gt;&lt;b&gt;&lt;font style=&quot;font-size: 16px;&quot;&gt;(Create / Manage Exam Questions)&lt;/font&gt;&lt;/b&gt;&lt;/div&gt;" style="whiteSpace=wrap;html=1;aspect=fixed;" vertex="1" parent="1">
          <mxGeometry x="1480" y="-1215" width="240" height="240" as="geometry" />
        </mxCell>
      </root>
    </mxGraphModel>
  </diagram>
  <diagram id="mJxIYXbhvtI1gHHD8IRf" name="Page-2">
    <mxGraphModel dx="1420" dy="942" grid="1" gridSize="10" guides="1" tooltips="1" connect="1" arrows="1" fold="1" page="1" pageScale="1" pageWidth="850" pageHeight="1100" math="0" shadow="0">
      <root>
        <mxCell id="0" />
        <mxCell id="1" parent="0" />
        <mxCell id="RW081cyx6c7tKIx5Bm8l-1" value="&lt;font style=&quot;font-size: 14px;&quot;&gt;&lt;b&gt;AI Normalized Candidate Exam Data&lt;/b&gt;&lt;/font&gt;" style="shape=cylinder3;whiteSpace=wrap;html=1;boundedLbl=1;backgroundOutline=1;size=15;strokeColor=default;align=center;verticalAlign=middle;fontFamily=Helvetica;fontSize=12;fontColor=default;fillColor=default;" vertex="1" parent="1">
          <mxGeometry x="1140" y="470" width="120" height="130" as="geometry" />
        </mxCell>
        <mxCell id="0tjZnTirtEJvISteG7uV-10" style="edgeStyle=orthogonalEdgeStyle;rounded=0;orthogonalLoop=1;jettySize=auto;html=1;exitX=0.5;exitY=1;exitDx=0;exitDy=0;entryX=0.5;entryY=0;entryDx=0;entryDy=0;" edge="1" parent="1" source="vpDbZs-vdEBF1j_pbWEh-1" target="0tjZnTirtEJvISteG7uV-6">
          <mxGeometry relative="1" as="geometry">
            <mxPoint x="810" y="730" as="targetPoint" />
          </mxGeometry>
        </mxCell>
        <mxCell id="vpDbZs-vdEBF1j_pbWEh-1" value="Data Retrieval&amp;nbsp;" style="rounded=0;whiteSpace=wrap;html=1;" vertex="1" parent="1">
          <mxGeometry x="750" y="640" width="120" height="60" as="geometry" />
        </mxCell>
        <mxCell id="0tjZnTirtEJvISteG7uV-1" style="edgeStyle=orthogonalEdgeStyle;rounded=0;orthogonalLoop=1;jettySize=auto;html=1;exitX=0.145;exitY=1;exitDx=0;exitDy=-4.35;exitPerimeter=0;entryX=1;entryY=0.5;entryDx=0;entryDy=0;startArrow=classic;startFill=1;endArrow=none;endFill=0;" edge="1" parent="1" source="eDluKhF_HJNQehMkLV1u-1" target="0tjZnTirtEJvISteG7uV-5">
          <mxGeometry relative="1" as="geometry">
            <Array as="points">
              <mxPoint x="927" y="950" />
            </Array>
          </mxGeometry>
        </mxCell>
        <mxCell id="mMr2zwwxchism_N1tsFI-1" style="edgeStyle=orthogonalEdgeStyle;rounded=0;orthogonalLoop=1;jettySize=auto;html=1;exitX=0.855;exitY=1;exitDx=0;exitDy=-4.35;exitPerimeter=0;entryX=0;entryY=0.5;entryDx=0;entryDy=0;" edge="1" parent="1" source="eDluKhF_HJNQehMkLV1u-1" target="muD_Ug5KTFGlHooU9dLW-6">
          <mxGeometry relative="1" as="geometry">
            <Array as="points">
              <mxPoint x="1013" y="820" />
            </Array>
          </mxGeometry>
        </mxCell>
        <mxCell id="eDluKhF_HJNQehMkLV1u-1" value="&lt;b&gt;&lt;font style=&quot;font-size: 14px;&quot;&gt;ANSWER KEY / QUESTION DATABASE (DB)&lt;/font&gt;&lt;/b&gt;&lt;div&gt;&lt;b&gt;&lt;font style=&quot;font-size: 14px;&quot;&gt;&lt;br&gt;&lt;/font&gt;&lt;/b&gt;&lt;/div&gt;" style="shape=cylinder3;whiteSpace=wrap;html=1;boundedLbl=1;backgroundOutline=1;size=15;" vertex="1" parent="1">
          <mxGeometry x="910" y="470" width="120" height="130" as="geometry" />
        </mxCell>
        <mxCell id="muD_Ug5KTFGlHooU9dLW-5" style="edgeStyle=orthogonalEdgeStyle;rounded=0;orthogonalLoop=1;jettySize=auto;html=1;entryX=0.5;entryY=0;entryDx=0;entryDy=0;" edge="1" parent="1" source="0tjZnTirtEJvISteG7uV-2" target="muD_Ug5KTFGlHooU9dLW-6">
          <mxGeometry relative="1" as="geometry">
            <mxPoint x="1199.9999999999998" y="750" as="targetPoint" />
          </mxGeometry>
        </mxCell>
        <mxCell id="0tjZnTirtEJvISteG7uV-2" value="Data Retrieval&amp;nbsp;" style="rounded=0;whiteSpace=wrap;html=1;" vertex="1" parent="1">
          <mxGeometry x="1140" y="670" width="120" height="60" as="geometry" />
        </mxCell>
        <mxCell id="0tjZnTirtEJvISteG7uV-15" style="edgeStyle=orthogonalEdgeStyle;rounded=0;orthogonalLoop=1;jettySize=auto;html=1;exitX=0.5;exitY=1;exitDx=0;exitDy=0;" edge="1" parent="1" source="0tjZnTirtEJvISteG7uV-3" target="0tjZnTirtEJvISteG7uV-4">
          <mxGeometry relative="1" as="geometry" />
        </mxCell>
        <mxCell id="0tjZnTirtEJvISteG7uV-3" value="Admin UI&lt;div&gt;(Modify Questions&lt;/div&gt;&lt;div&gt;&amp;amp; Answers, etc.)&lt;/div&gt;" style="rounded=0;whiteSpace=wrap;html=1;" vertex="1" parent="1">
          <mxGeometry x="750" y="250" width="120" height="60" as="geometry" />
        </mxCell>
        <mxCell id="0tjZnTirtEJvISteG7uV-4" value="QUESTION MANAGEMENT SERVICE&lt;div&gt;(Update/Modify/etc.)&lt;/div&gt;" style="rounded=0;whiteSpace=wrap;html=1;" vertex="1" parent="1">
          <mxGeometry x="750" y="370" width="120" height="60" as="geometry" />
        </mxCell>
        <mxCell id="0tjZnTirtEJvISteG7uV-5" value="Add / Upsert / Delete data to VectorDB" style="rounded=0;whiteSpace=wrap;html=1;" vertex="1" parent="1">
          <mxGeometry x="750" y="900" width="120" height="60" as="geometry" />
        </mxCell>
        <mxCell id="0tjZnTirtEJvISteG7uV-12" style="edgeStyle=orthogonalEdgeStyle;rounded=0;orthogonalLoop=1;jettySize=auto;html=1;exitX=0.5;exitY=1;exitDx=0;exitDy=0;entryX=0.5;entryY=0;entryDx=0;entryDy=0;" edge="1" parent="1" source="0tjZnTirtEJvISteG7uV-6" target="0tjZnTirtEJvISteG7uV-5">
          <mxGeometry relative="1" as="geometry" />
        </mxCell>
        <mxCell id="0tjZnTirtEJvISteG7uV-6" value="Index data" style="rounded=0;whiteSpace=wrap;html=1;" vertex="1" parent="1">
          <mxGeometry x="750" y="770" width="120" height="60" as="geometry" />
        </mxCell>
        <mxCell id="0tjZnTirtEJvISteG7uV-9" style="edgeStyle=orthogonalEdgeStyle;rounded=0;orthogonalLoop=1;jettySize=auto;html=1;exitX=0.5;exitY=1;exitDx=0;exitDy=0;exitPerimeter=0;entryX=0.5;entryY=0;entryDx=0;entryDy=0;" edge="1" parent="1" source="0tjZnTirtEJvISteG7uV-8" target="vpDbZs-vdEBF1j_pbWEh-1">
          <mxGeometry relative="1" as="geometry" />
        </mxCell>
        <mxCell id="0tjZnTirtEJvISteG7uV-8" value="&lt;b&gt;&lt;font style=&quot;font-size: 14px;&quot;&gt;RAW ANSWER KEY / QUESTION DATABASE&amp;nbsp;&lt;/font&gt;&lt;/b&gt;&lt;div&gt;&lt;b&gt;&lt;font style=&quot;font-size: 14px;&quot;&gt;(Data Store, unspecified)&lt;/font&gt;&lt;/b&gt;&lt;div&gt;&lt;b&gt;&lt;font style=&quot;font-size: 14px;&quot;&gt;&lt;br&gt;&lt;/font&gt;&lt;/b&gt;&lt;/div&gt;&lt;/div&gt;" style="shape=cylinder3;whiteSpace=wrap;html=1;boundedLbl=1;backgroundOutline=1;size=15;strokeColor=default;align=center;verticalAlign=middle;fontFamily=Helvetica;fontSize=12;fontColor=default;fillColor=default;" vertex="1" parent="1">
          <mxGeometry x="750" y="470" width="120" height="130" as="geometry" />
        </mxCell>
        <mxCell id="0tjZnTirtEJvISteG7uV-14" style="edgeStyle=orthogonalEdgeStyle;rounded=0;orthogonalLoop=1;jettySize=auto;html=1;entryX=0;entryY=0.5;entryDx=0;entryDy=0;" edge="1" parent="1" source="0tjZnTirtEJvISteG7uV-13" target="0tjZnTirtEJvISteG7uV-3">
          <mxGeometry relative="1" as="geometry" />
        </mxCell>
        <mxCell id="0tjZnTirtEJvISteG7uV-13" value="ADMIN" style="shape=umlActor;verticalLabelPosition=bottom;verticalAlign=top;html=1;outlineConnect=0;" vertex="1" parent="1">
          <mxGeometry x="640" y="250" width="30" height="60" as="geometry" />
        </mxCell>
        <mxCell id="0tjZnTirtEJvISteG7uV-16" style="edgeStyle=orthogonalEdgeStyle;rounded=0;orthogonalLoop=1;jettySize=auto;html=1;exitX=0.5;exitY=1;exitDx=0;exitDy=0;entryX=0.5;entryY=0;entryDx=0;entryDy=0;entryPerimeter=0;" edge="1" parent="1" source="0tjZnTirtEJvISteG7uV-4" target="0tjZnTirtEJvISteG7uV-8">
          <mxGeometry relative="1" as="geometry" />
        </mxCell>
        <mxCell id="muD_Ug5KTFGlHooU9dLW-1" value="&lt;div style=&quot;text-align: left;&quot;&gt;&lt;b style=&quot;background-color: initial;&quot;&gt;&amp;nbsp; &amp;nbsp; &amp;nbsp; &amp;nbsp; &amp;nbsp; &amp;nbsp; &amp;nbsp; &amp;nbsp; &amp;nbsp; &amp;nbsp; &amp;nbsp; &amp;nbsp; &amp;nbsp; AI ANALYSIS PIPELINE&lt;/b&gt;&lt;/div&gt;&lt;div&gt;&lt;ul&gt;&lt;li style=&quot;text-align: left;&quot;&gt;Take Normalized AI Candidate Exam Data&lt;/li&gt;&lt;li style=&quot;text-align: left;&quot;&gt;Create embeddings for the candidate answer&lt;/li&gt;&lt;li style=&quot;text-align: left;&quot;&gt;Send query to indexer&lt;/li&gt;&lt;li style=&quot;text-align: left;&quot;&gt;indexer returns ranked similarity responses&lt;/li&gt;&lt;ul&gt;&lt;li style=&quot;text-align: left;&quot;&gt;Response:&amp;nbsp;&lt;/li&gt;&lt;li style=&quot;text-align: left;&quot;&gt;Embedding: [12034912, 120349120934, 1041023491]&lt;br&gt;&lt;/li&gt;&lt;li style=&quot;text-align: left;&quot;&gt;Similarity / Accuracy: 90%&lt;/li&gt;&lt;/ul&gt;&lt;/ul&gt;&lt;div style=&quot;text-align: left;&quot;&gt;&lt;br&gt;&lt;/div&gt;&lt;/div&gt;" style="shape=process;whiteSpace=wrap;html=1;backgroundOutline=1;verticalAlign=top;align=center;" vertex="1" parent="1">
          <mxGeometry x="50" y="250" width="360" height="280" as="geometry" />
        </mxCell>
        <mxCell id="muD_Ug5KTFGlHooU9dLW-3" style="edgeStyle=orthogonalEdgeStyle;rounded=0;orthogonalLoop=1;jettySize=auto;html=1;entryX=0.5;entryY=0;entryDx=0;entryDy=0;" edge="1" parent="1" source="RW081cyx6c7tKIx5Bm8l-1" target="0tjZnTirtEJvISteG7uV-2">
          <mxGeometry relative="1" as="geometry">
            <mxPoint x="1250" y="680" as="targetPoint" />
          </mxGeometry>
        </mxCell>
        <mxCell id="tm6qg2HBaLtCG7ACH0hl-6" style="edgeStyle=orthogonalEdgeStyle;rounded=0;orthogonalLoop=1;jettySize=auto;html=1;entryX=0;entryY=0.5;entryDx=0;entryDy=0;" edge="1" parent="1" source="muD_Ug5KTFGlHooU9dLW-6" target="tm6qg2HBaLtCG7ACH0hl-3">
          <mxGeometry relative="1" as="geometry" />
        </mxCell>
        <mxCell id="muD_Ug5KTFGlHooU9dLW-6" value="pull question data from vector db" style="rounded=0;whiteSpace=wrap;html=1;" vertex="1" parent="1">
          <mxGeometry x="1140" y="790" width="120" height="60" as="geometry" />
        </mxCell>
        <mxCell id="muD_Ug5KTFGlHooU9dLW-8" value="&lt;b style=&quot;font-size: 14px;&quot;&gt;AI Normalized Candidate Exam Data&lt;/b&gt;" style="shape=cylinder3;whiteSpace=wrap;html=1;boundedLbl=1;backgroundOutline=1;size=15;strokeColor=default;align=center;verticalAlign=middle;fontFamily=Helvetica;fontSize=12;fontColor=default;fillColor=default;" vertex="1" parent="1">
          <mxGeometry x="1170" y="1460" width="120" height="130" as="geometry" />
        </mxCell>
        <mxCell id="muD_Ug5KTFGlHooU9dLW-9" style="edgeStyle=orthogonalEdgeStyle;rounded=0;orthogonalLoop=1;jettySize=auto;html=1;entryX=0.5;entryY=0;entryDx=0;entryDy=0;" edge="1" parent="1" source="muD_Ug5KTFGlHooU9dLW-10" target="muD_Ug5KTFGlHooU9dLW-13">
          <mxGeometry relative="1" as="geometry" />
        </mxCell>
        <mxCell id="muD_Ug5KTFGlHooU9dLW-10" value="Data Retrieval&amp;nbsp;" style="rounded=0;whiteSpace=wrap;html=1;" vertex="1" parent="1">
          <mxGeometry x="1170" y="1650" width="120" height="60" as="geometry" />
        </mxCell>
        <mxCell id="muD_Ug5KTFGlHooU9dLW-11" style="edgeStyle=orthogonalEdgeStyle;rounded=0;orthogonalLoop=1;jettySize=auto;html=1;entryX=0.5;entryY=0;entryDx=0;entryDy=0;" edge="1" parent="1" source="muD_Ug5KTFGlHooU9dLW-8" target="muD_Ug5KTFGlHooU9dLW-10">
          <mxGeometry relative="1" as="geometry">
            <mxPoint x="1280" y="1680" as="targetPoint" />
          </mxGeometry>
        </mxCell>
        <mxCell id="muD_Ug5KTFGlHooU9dLW-12" style="edgeStyle=orthogonalEdgeStyle;rounded=0;orthogonalLoop=1;jettySize=auto;html=1;exitX=0.5;exitY=1;exitDx=0;exitDy=0;entryX=0.5;entryY=0;entryDx=0;entryDy=0;" edge="1" parent="1" source="muD_Ug5KTFGlHooU9dLW-13" target="muD_Ug5KTFGlHooU9dLW-14">
          <mxGeometry relative="1" as="geometry" />
        </mxCell>
        <mxCell id="muD_Ug5KTFGlHooU9dLW-13" value="Apply Embedding Model" style="rounded=0;whiteSpace=wrap;html=1;" vertex="1" parent="1">
          <mxGeometry x="1170" y="1750" width="120" height="60" as="geometry" />
        </mxCell>
        <mxCell id="HkC7Mc5X7X3p5CN1dlaK-9" style="edgeStyle=orthogonalEdgeStyle;rounded=0;orthogonalLoop=1;jettySize=auto;html=1;entryX=0;entryY=0.5;entryDx=0;entryDy=0;" edge="1" parent="1" source="muD_Ug5KTFGlHooU9dLW-14" target="HkC7Mc5X7X3p5CN1dlaK-2">
          <mxGeometry relative="1" as="geometry" />
        </mxCell>
        <mxCell id="muD_Ug5KTFGlHooU9dLW-14" value="query vector db" style="rounded=0;whiteSpace=wrap;html=1;" vertex="1" parent="1">
          <mxGeometry x="1170" y="1850" width="120" height="60" as="geometry" />
        </mxCell>
        <mxCell id="lGvvZeo0mcH_qj1Bu3mb-1" value="&lt;b&gt;Options&lt;/b&gt;:&lt;div&gt;&lt;span style=&quot;background-color: initial;&quot;&gt;1.)&amp;nbsp; No embeddings, no vector DB.&amp;nbsp; Pull AnswerKey data and Candidate Exam Answer - pass to LLM&lt;/span&gt;&lt;br&gt;&lt;/div&gt;&lt;div&gt;&lt;br&gt;&lt;/div&gt;&lt;div&gt;2.) Simiarity query to vector db to find top &amp;lt;k&amp;gt; results,&lt;/div&gt;&lt;div&gt;send prompt with raw content / question / candidate answer to LLM for evaluation&lt;/div&gt;&lt;div&gt;&lt;br&gt;&lt;/div&gt;&lt;div&gt;3.)&amp;nbsp;&lt;span style=&quot;background-color: initial;&quot;&gt;Get embeddings for question1, apply embeddings to Candidate Exam Answer, LLM does comparison / similarity. Fetch content comes after.&lt;/span&gt;&lt;/div&gt;" style="rounded=1;whiteSpace=wrap;html=1;fontSize=18;align=left;verticalAlign=top;arcSize=0;" vertex="1" parent="1">
          <mxGeometry x="120" y="1150" width="500" height="330" as="geometry" />
        </mxCell>
        <mxCell id="lGvvZeo0mcH_qj1Bu3mb-2" style="edgeStyle=orthogonalEdgeStyle;rounded=0;orthogonalLoop=1;jettySize=auto;html=1;exitX=0.5;exitY=1;exitDx=0;exitDy=0;entryX=0.5;entryY=0;entryDx=0;entryDy=0;" edge="1" parent="1" source="lGvvZeo0mcH_qj1Bu3mb-3" target="HkC7Mc5X7X3p5CN1dlaK-15">
          <mxGeometry relative="1" as="geometry">
            <mxPoint x="690" y="1720" as="targetPoint" />
          </mxGeometry>
        </mxCell>
        <mxCell id="lGvvZeo0mcH_qj1Bu3mb-3" value="Data Retrieval&amp;nbsp;" style="rounded=0;whiteSpace=wrap;html=1;" vertex="1" parent="1">
          <mxGeometry x="800" y="1630" width="120" height="60" as="geometry" />
        </mxCell>
        <mxCell id="lGvvZeo0mcH_qj1Bu3mb-4" style="edgeStyle=orthogonalEdgeStyle;rounded=0;orthogonalLoop=1;jettySize=auto;html=1;exitX=0.145;exitY=1;exitDx=0;exitDy=-4.35;exitPerimeter=0;entryX=1;entryY=0.5;entryDx=0;entryDy=0;startArrow=classic;startFill=1;endArrow=none;endFill=0;" edge="1" parent="1" source="lGvvZeo0mcH_qj1Bu3mb-5" target="lGvvZeo0mcH_qj1Bu3mb-9">
          <mxGeometry relative="1" as="geometry">
            <Array as="points">
              <mxPoint x="977" y="2000" />
              <mxPoint x="920" y="2000" />
            </Array>
          </mxGeometry>
        </mxCell>
        <mxCell id="HkC7Mc5X7X3p5CN1dlaK-8" style="edgeStyle=orthogonalEdgeStyle;rounded=0;orthogonalLoop=1;jettySize=auto;html=1;exitX=0.855;exitY=1;exitDx=0;exitDy=-4.35;exitPerimeter=0;entryX=0;entryY=0.5;entryDx=0;entryDy=0;" edge="1" parent="1" source="lGvvZeo0mcH_qj1Bu3mb-5" target="muD_Ug5KTFGlHooU9dLW-14">
          <mxGeometry relative="1" as="geometry">
            <Array as="points">
              <mxPoint x="1063" y="1880" />
            </Array>
          </mxGeometry>
        </mxCell>
        <mxCell id="lGvvZeo0mcH_qj1Bu3mb-5" value="&lt;b&gt;&lt;font style=&quot;font-size: 14px;&quot;&gt;ANSWER KEY / QUESTION DATABASE (VECTOR DB)&lt;/font&gt;&lt;/b&gt;&lt;div&gt;&lt;b&gt;&lt;font style=&quot;font-size: 14px;&quot;&gt;&lt;br&gt;&lt;/font&gt;&lt;/b&gt;&lt;/div&gt;" style="shape=cylinder3;whiteSpace=wrap;html=1;boundedLbl=1;backgroundOutline=1;size=15;" vertex="1" parent="1">
          <mxGeometry x="960" y="1460" width="120" height="130" as="geometry" />
        </mxCell>
        <mxCell id="lGvvZeo0mcH_qj1Bu3mb-6" style="edgeStyle=orthogonalEdgeStyle;rounded=0;orthogonalLoop=1;jettySize=auto;html=1;exitX=0.5;exitY=1;exitDx=0;exitDy=0;" edge="1" parent="1" source="lGvvZeo0mcH_qj1Bu3mb-7" target="lGvvZeo0mcH_qj1Bu3mb-8">
          <mxGeometry relative="1" as="geometry" />
        </mxCell>
        <mxCell id="lGvvZeo0mcH_qj1Bu3mb-7" value="Admin UI&lt;div&gt;(Modify Questions&lt;/div&gt;&lt;div&gt;&amp;amp; Answers, etc.)&lt;/div&gt;" style="rounded=0;whiteSpace=wrap;html=1;" vertex="1" parent="1">
          <mxGeometry x="800" y="1240" width="120" height="60" as="geometry" />
        </mxCell>
        <mxCell id="lGvvZeo0mcH_qj1Bu3mb-8" value="QUESTION MANAGEMENT SERVICE&lt;div&gt;(Update/Modify/etc.)&lt;/div&gt;" style="rounded=0;whiteSpace=wrap;html=1;" vertex="1" parent="1">
          <mxGeometry x="800" y="1360" width="120" height="60" as="geometry" />
        </mxCell>
        <mxCell id="lGvvZeo0mcH_qj1Bu3mb-9" value="Add / Upsert / Delete data to VectorDB" style="rounded=0;whiteSpace=wrap;html=1;" vertex="1" parent="1">
          <mxGeometry x="800" y="1980" width="120" height="60" as="geometry" />
        </mxCell>
        <mxCell id="lGvvZeo0mcH_qj1Bu3mb-10" style="edgeStyle=orthogonalEdgeStyle;rounded=0;orthogonalLoop=1;jettySize=auto;html=1;exitX=0.5;exitY=1;exitDx=0;exitDy=0;entryX=0.5;entryY=0;entryDx=0;entryDy=0;" edge="1" parent="1" source="lGvvZeo0mcH_qj1Bu3mb-11" target="lGvvZeo0mcH_qj1Bu3mb-9">
          <mxGeometry relative="1" as="geometry" />
        </mxCell>
        <mxCell id="KaorW1IGcZPYwbK9dUcE-1" value="" style="edgeStyle=orthogonalEdgeStyle;rounded=0;orthogonalLoop=1;jettySize=auto;html=1;startArrow=classic;startFill=1;endArrow=none;endFill=0;" edge="1" parent="1" source="lGvvZeo0mcH_qj1Bu3mb-11" target="lGvvZeo0mcH_qj1Bu3mb-13">
          <mxGeometry relative="1" as="geometry" />
        </mxCell>
        <mxCell id="lGvvZeo0mcH_qj1Bu3mb-11" value="Index data" style="rounded=0;whiteSpace=wrap;html=1;" vertex="1" parent="1">
          <mxGeometry x="800" y="1900" width="120" height="60" as="geometry" />
        </mxCell>
        <mxCell id="lGvvZeo0mcH_qj1Bu3mb-13" value="Apply Embedding Model" style="rounded=0;whiteSpace=wrap;html=1;" vertex="1" parent="1">
          <mxGeometry x="800" y="1810" width="120" height="60" as="geometry" />
        </mxCell>
        <mxCell id="lGvvZeo0mcH_qj1Bu3mb-14" style="edgeStyle=orthogonalEdgeStyle;rounded=0;orthogonalLoop=1;jettySize=auto;html=1;exitX=0.5;exitY=1;exitDx=0;exitDy=0;exitPerimeter=0;entryX=0.5;entryY=0;entryDx=0;entryDy=0;" edge="1" parent="1" source="lGvvZeo0mcH_qj1Bu3mb-15" target="lGvvZeo0mcH_qj1Bu3mb-3">
          <mxGeometry relative="1" as="geometry" />
        </mxCell>
        <mxCell id="lGvvZeo0mcH_qj1Bu3mb-15" value="&lt;b&gt;&lt;font style=&quot;font-size: 14px;&quot;&gt;RAW ANSWER KEY / QUESTION DATABASE&amp;nbsp;&lt;/font&gt;&lt;/b&gt;&lt;div&gt;&lt;b&gt;&lt;font style=&quot;font-size: 14px;&quot;&gt;(Data Store, unspecified)&lt;/font&gt;&lt;/b&gt;&lt;div&gt;&lt;b&gt;&lt;font style=&quot;font-size: 14px;&quot;&gt;&lt;br&gt;&lt;/font&gt;&lt;/b&gt;&lt;/div&gt;&lt;/div&gt;" style="shape=cylinder3;whiteSpace=wrap;html=1;boundedLbl=1;backgroundOutline=1;size=15;strokeColor=default;align=center;verticalAlign=middle;fontFamily=Helvetica;fontSize=12;fontColor=default;fillColor=default;" vertex="1" parent="1">
          <mxGeometry x="800" y="1460" width="120" height="130" as="geometry" />
        </mxCell>
        <mxCell id="lGvvZeo0mcH_qj1Bu3mb-16" style="edgeStyle=orthogonalEdgeStyle;rounded=0;orthogonalLoop=1;jettySize=auto;html=1;entryX=0;entryY=0.5;entryDx=0;entryDy=0;" edge="1" parent="1" source="lGvvZeo0mcH_qj1Bu3mb-17" target="lGvvZeo0mcH_qj1Bu3mb-7">
          <mxGeometry relative="1" as="geometry" />
        </mxCell>
        <mxCell id="lGvvZeo0mcH_qj1Bu3mb-17" value="ADMIN" style="shape=umlActor;verticalLabelPosition=bottom;verticalAlign=top;html=1;outlineConnect=0;" vertex="1" parent="1">
          <mxGeometry x="690" y="1240" width="30" height="60" as="geometry" />
        </mxCell>
        <mxCell id="lGvvZeo0mcH_qj1Bu3mb-18" style="edgeStyle=orthogonalEdgeStyle;rounded=0;orthogonalLoop=1;jettySize=auto;html=1;exitX=0.5;exitY=1;exitDx=0;exitDy=0;entryX=0.5;entryY=0;entryDx=0;entryDy=0;entryPerimeter=0;" edge="1" parent="1" source="lGvvZeo0mcH_qj1Bu3mb-8" target="lGvvZeo0mcH_qj1Bu3mb-15">
          <mxGeometry relative="1" as="geometry" />
        </mxCell>
        <mxCell id="lGvvZeo0mcH_qj1Bu3mb-19" value="&lt;b&gt;Option&lt;/b&gt;:&amp;nbsp;&amp;nbsp;&lt;span style=&quot;background-color: initial;&quot;&gt;1.)&amp;nbsp; Do not apply Embeddings to Candidate Exams, simply pull data from Vector DB to pass to LLM&lt;/span&gt;&lt;div&gt;&lt;br&gt;&lt;/div&gt;" style="rounded=1;whiteSpace=wrap;html=1;fontSize=18;align=left;verticalAlign=top;arcSize=0;" vertex="1" parent="1">
          <mxGeometry x="630" y="130" width="500" height="80" as="geometry" />
        </mxCell>
        <mxCell id="lGvvZeo0mcH_qj1Bu3mb-20" value="&lt;b&gt;Option&lt;/b&gt;:&amp;nbsp;&lt;span style=&quot;background-color: initial;&quot;&gt;2.) Apply embeddings to Candidate Exams for similarity / nnn ranking?&lt;/span&gt;" style="rounded=1;whiteSpace=wrap;html=1;fontSize=18;align=left;verticalAlign=top;arcSize=0;" vertex="1" parent="1">
          <mxGeometry x="740" y="1120" width="500" height="80" as="geometry" />
        </mxCell>
        <mxCell id="tm6qg2HBaLtCG7ACH0hl-1" value="&lt;b&gt;LLM PROCESSING&lt;/b&gt;&lt;div&gt;&lt;b&gt;&lt;br&gt;&lt;/b&gt;&lt;/div&gt;&lt;div&gt;&lt;ul&gt;&lt;li style=&quot;text-align: left;&quot;&gt;Take indexer response&amp;nbsp;&lt;/li&gt;&lt;li style=&quot;text-align: left;&quot;&gt;Send prompt and response to LLM to create human readable answer&lt;/li&gt;&lt;ul&gt;&lt;li style=&quot;text-align: left;&quot;&gt;PROMPT:&lt;/li&gt;&lt;li style=&quot;text-align: left;&quot;&gt;Using &amp;lt;questionID, Associated Concepts, Grading Criteria, Acceptable Answers, etc.&amp;gt;&lt;/li&gt;&lt;li style=&quot;text-align: left;&quot;&gt;Given the candidates &amp;lt;answer&amp;gt;, provide feedback on accuracy, correctness, and understanding of their answer to the &amp;lt;questionID&amp;gt;.&lt;/li&gt;&lt;/ul&gt;&lt;li style=&quot;text-align: left;&quot;&gt;Save answer to AI Graded Database for review by an expert&lt;/li&gt;&lt;/ul&gt;&lt;/div&gt;" style="shape=process;whiteSpace=wrap;html=1;backgroundOutline=1;verticalAlign=top;align=center;" vertex="1" parent="1">
          <mxGeometry x="50" y="540" width="360" height="280" as="geometry" />
        </mxCell>
        <mxCell id="tm6qg2HBaLtCG7ACH0hl-7" style="edgeStyle=orthogonalEdgeStyle;rounded=0;orthogonalLoop=1;jettySize=auto;html=1;entryX=0;entryY=0.5;entryDx=0;entryDy=0;" edge="1" parent="1" source="tm6qg2HBaLtCG7ACH0hl-3" target="tm6qg2HBaLtCG7ACH0hl-5">
          <mxGeometry relative="1" as="geometry" />
        </mxCell>
        <mxCell id="tm6qg2HBaLtCG7ACH0hl-3" value="&lt;div&gt;&lt;br&gt;&lt;/div&gt;&lt;div&gt;LLM Prompting (&lt;/div&gt;question that was asked&lt;br&gt;Candidate Exam answer + Acceptable Answer Data&amp;nbsp;&lt;div&gt;)&lt;/div&gt;" style="rounded=0;whiteSpace=wrap;html=1;" vertex="1" parent="1">
          <mxGeometry x="1330" y="770" width="160" height="100" as="geometry" />
        </mxCell>
        <mxCell id="tm6qg2HBaLtCG7ACH0hl-4" value="Normalize LLM response data and store to db" style="rounded=0;whiteSpace=wrap;html=1;" vertex="1" parent="1">
          <mxGeometry x="1730" y="790" width="120" height="60" as="geometry" />
        </mxCell>
        <mxCell id="-2EClnyrfUiAtAgwtBaj-1" style="edgeStyle=orthogonalEdgeStyle;rounded=0;orthogonalLoop=1;jettySize=auto;html=1;entryX=0;entryY=0.5;entryDx=0;entryDy=0;" edge="1" parent="1" source="tm6qg2HBaLtCG7ACH0hl-5" target="tm6qg2HBaLtCG7ACH0hl-4">
          <mxGeometry relative="1" as="geometry" />
        </mxCell>
        <mxCell id="tm6qg2HBaLtCG7ACH0hl-5" value="LLM Processing" style="rounded=0;whiteSpace=wrap;html=1;" vertex="1" parent="1">
          <mxGeometry x="1550" y="790" width="120" height="60" as="geometry" />
        </mxCell>
        <mxCell id="2YZ5MHwzRFpqTepZqCJX-1" value="&lt;b&gt;&lt;font style=&quot;font-size: 14px;&quot;&gt;AI GRADED CANDIDATE DATABASE&lt;/font&gt;&lt;/b&gt;&lt;div&gt;&lt;b&gt;&lt;font style=&quot;font-size: 14px;&quot;&gt;&lt;br&gt;&lt;/font&gt;&lt;/b&gt;&lt;/div&gt;&lt;div&gt;&lt;b&gt;&lt;font style=&quot;font-size: 14px;&quot;&gt;&lt;br&gt;&lt;/font&gt;&lt;/b&gt;&lt;/div&gt;" style="shape=cylinder3;whiteSpace=wrap;html=1;boundedLbl=1;backgroundOutline=1;size=15;strokeColor=default;align=center;verticalAlign=middle;fontFamily=Helvetica;fontSize=12;fontColor=default;fillColor=default;" vertex="1" parent="1">
          <mxGeometry x="1730" y="480" width="120" height="130" as="geometry" />
        </mxCell>
        <mxCell id="-2EClnyrfUiAtAgwtBaj-2" style="edgeStyle=orthogonalEdgeStyle;rounded=0;orthogonalLoop=1;jettySize=auto;html=1;entryX=0.5;entryY=1;entryDx=0;entryDy=0;entryPerimeter=0;" edge="1" parent="1" source="tm6qg2HBaLtCG7ACH0hl-4" target="2YZ5MHwzRFpqTepZqCJX-1">
          <mxGeometry relative="1" as="geometry" />
        </mxCell>
        <mxCell id="HkC7Mc5X7X3p5CN1dlaK-1" style="edgeStyle=orthogonalEdgeStyle;rounded=0;orthogonalLoop=1;jettySize=auto;html=1;entryX=0;entryY=0.5;entryDx=0;entryDy=0;" edge="1" parent="1" source="HkC7Mc5X7X3p5CN1dlaK-2" target="HkC7Mc5X7X3p5CN1dlaK-5">
          <mxGeometry relative="1" as="geometry" />
        </mxCell>
        <mxCell id="HkC7Mc5X7X3p5CN1dlaK-2" value="&lt;div&gt;&lt;br&gt;&lt;/div&gt;&lt;div&gt;LLM Prompting (&lt;/div&gt;question that was asked&lt;br&gt;Candidate Exam answer + Top &amp;lt;K&amp;gt; Answers Data Chunks&lt;div&gt;&lt;div&gt;)&lt;/div&gt;&lt;/div&gt;" style="rounded=0;whiteSpace=wrap;html=1;" vertex="1" parent="1">
          <mxGeometry x="1360" y="1830" width="160" height="100" as="geometry" />
        </mxCell>
        <mxCell id="HkC7Mc5X7X3p5CN1dlaK-3" value="Normalize LLM response data and store to db" style="rounded=0;whiteSpace=wrap;html=1;" vertex="1" parent="1">
          <mxGeometry x="1760" y="1850" width="120" height="60" as="geometry" />
        </mxCell>
        <mxCell id="HkC7Mc5X7X3p5CN1dlaK-4" style="edgeStyle=orthogonalEdgeStyle;rounded=0;orthogonalLoop=1;jettySize=auto;html=1;entryX=0;entryY=0.5;entryDx=0;entryDy=0;" edge="1" parent="1" source="HkC7Mc5X7X3p5CN1dlaK-5" target="HkC7Mc5X7X3p5CN1dlaK-3">
          <mxGeometry relative="1" as="geometry" />
        </mxCell>
        <mxCell id="HkC7Mc5X7X3p5CN1dlaK-5" value="LLM Processing" style="rounded=0;whiteSpace=wrap;html=1;" vertex="1" parent="1">
          <mxGeometry x="1580" y="1850" width="120" height="60" as="geometry" />
        </mxCell>
        <mxCell id="HkC7Mc5X7X3p5CN1dlaK-6" value="&lt;b&gt;&lt;font style=&quot;font-size: 14px;&quot;&gt;AI GRADED CANDIDATE DATABASE&lt;/font&gt;&lt;/b&gt;&lt;div&gt;&lt;b&gt;&lt;font style=&quot;font-size: 14px;&quot;&gt;&lt;br&gt;&lt;/font&gt;&lt;/b&gt;&lt;/div&gt;&lt;div&gt;&lt;b&gt;&lt;font style=&quot;font-size: 14px;&quot;&gt;&lt;br&gt;&lt;/font&gt;&lt;/b&gt;&lt;/div&gt;" style="shape=cylinder3;whiteSpace=wrap;html=1;boundedLbl=1;backgroundOutline=1;size=15;strokeColor=default;align=center;verticalAlign=middle;fontFamily=Helvetica;fontSize=12;fontColor=default;fillColor=default;" vertex="1" parent="1">
          <mxGeometry x="1760" y="1540" width="120" height="130" as="geometry" />
        </mxCell>
        <mxCell id="HkC7Mc5X7X3p5CN1dlaK-7" style="edgeStyle=orthogonalEdgeStyle;rounded=0;orthogonalLoop=1;jettySize=auto;html=1;entryX=0.5;entryY=1;entryDx=0;entryDy=0;entryPerimeter=0;" edge="1" parent="1" source="HkC7Mc5X7X3p5CN1dlaK-3" target="HkC7Mc5X7X3p5CN1dlaK-6">
          <mxGeometry relative="1" as="geometry" />
        </mxCell>
        <mxCell id="HkC7Mc5X7X3p5CN1dlaK-16" style="edgeStyle=orthogonalEdgeStyle;rounded=0;orthogonalLoop=1;jettySize=auto;html=1;entryX=0.5;entryY=0;entryDx=0;entryDy=0;" edge="1" parent="1" source="HkC7Mc5X7X3p5CN1dlaK-15" target="lGvvZeo0mcH_qj1Bu3mb-13">
          <mxGeometry relative="1" as="geometry" />
        </mxCell>
        <mxCell id="HkC7Mc5X7X3p5CN1dlaK-15" value="Chunk data&amp;nbsp;&lt;div&gt;(if needed)&lt;/div&gt;" style="rounded=0;whiteSpace=wrap;html=1;" vertex="1" parent="1">
          <mxGeometry x="800" y="1720" width="120" height="60" as="geometry" />
        </mxCell>
        <mxCell id="HkC7Mc5X7X3p5CN1dlaK-17" value="&lt;b style=&quot;font-size: 14px;&quot;&gt;AI Normalized Candidate Exam Data&lt;/b&gt;" style="shape=cylinder3;whiteSpace=wrap;html=1;boundedLbl=1;backgroundOutline=1;size=15;strokeColor=default;align=center;verticalAlign=middle;fontFamily=Helvetica;fontSize=12;fontColor=default;fillColor=default;" vertex="1" parent="1">
          <mxGeometry x="1220" y="2500" width="120" height="130" as="geometry" />
        </mxCell>
        <mxCell id="HkC7Mc5X7X3p5CN1dlaK-18" style="edgeStyle=orthogonalEdgeStyle;rounded=0;orthogonalLoop=1;jettySize=auto;html=1;entryX=0.5;entryY=0;entryDx=0;entryDy=0;" edge="1" parent="1" source="HkC7Mc5X7X3p5CN1dlaK-19" target="HkC7Mc5X7X3p5CN1dlaK-22">
          <mxGeometry relative="1" as="geometry" />
        </mxCell>
        <mxCell id="HkC7Mc5X7X3p5CN1dlaK-19" value="Data Retrieval&amp;nbsp;" style="rounded=0;whiteSpace=wrap;html=1;" vertex="1" parent="1">
          <mxGeometry x="1220" y="2690" width="120" height="60" as="geometry" />
        </mxCell>
        <mxCell id="HkC7Mc5X7X3p5CN1dlaK-20" style="edgeStyle=orthogonalEdgeStyle;rounded=0;orthogonalLoop=1;jettySize=auto;html=1;entryX=0.5;entryY=0;entryDx=0;entryDy=0;" edge="1" parent="1" source="HkC7Mc5X7X3p5CN1dlaK-17" target="HkC7Mc5X7X3p5CN1dlaK-19">
          <mxGeometry relative="1" as="geometry">
            <mxPoint x="1330" y="2720" as="targetPoint" />
          </mxGeometry>
        </mxCell>
        <mxCell id="HkC7Mc5X7X3p5CN1dlaK-21" style="edgeStyle=orthogonalEdgeStyle;rounded=0;orthogonalLoop=1;jettySize=auto;html=1;exitX=0.5;exitY=1;exitDx=0;exitDy=0;entryX=0.5;entryY=0;entryDx=0;entryDy=0;" edge="1" parent="1" source="HkC7Mc5X7X3p5CN1dlaK-22" target="HkC7Mc5X7X3p5CN1dlaK-24">
          <mxGeometry relative="1" as="geometry" />
        </mxCell>
        <mxCell id="HkC7Mc5X7X3p5CN1dlaK-22" value="Apply Embedding Model" style="rounded=0;whiteSpace=wrap;html=1;" vertex="1" parent="1">
          <mxGeometry x="1220" y="2790" width="120" height="60" as="geometry" />
        </mxCell>
        <mxCell id="HkC7Mc5X7X3p5CN1dlaK-23" style="edgeStyle=orthogonalEdgeStyle;rounded=0;orthogonalLoop=1;jettySize=auto;html=1;entryX=0;entryY=0.5;entryDx=0;entryDy=0;" edge="1" parent="1" source="HkC7Mc5X7X3p5CN1dlaK-24" target="HkC7Mc5X7X3p5CN1dlaK-44">
          <mxGeometry relative="1" as="geometry" />
        </mxCell>
        <mxCell id="HkC7Mc5X7X3p5CN1dlaK-24" value="query vector db" style="rounded=0;whiteSpace=wrap;html=1;" vertex="1" parent="1">
          <mxGeometry x="1220" y="2890" width="120" height="60" as="geometry" />
        </mxCell>
        <mxCell id="HkC7Mc5X7X3p5CN1dlaK-25" style="edgeStyle=orthogonalEdgeStyle;rounded=0;orthogonalLoop=1;jettySize=auto;html=1;exitX=0.5;exitY=1;exitDx=0;exitDy=0;entryX=0.5;entryY=0;entryDx=0;entryDy=0;" edge="1" parent="1" source="HkC7Mc5X7X3p5CN1dlaK-26" target="HkC7Mc5X7X3p5CN1dlaK-51">
          <mxGeometry relative="1" as="geometry">
            <mxPoint x="740" y="2760" as="targetPoint" />
          </mxGeometry>
        </mxCell>
        <mxCell id="HkC7Mc5X7X3p5CN1dlaK-26" value="Data Retrieval&amp;nbsp;" style="rounded=0;whiteSpace=wrap;html=1;" vertex="1" parent="1">
          <mxGeometry x="850" y="2670" width="120" height="60" as="geometry" />
        </mxCell>
        <mxCell id="HkC7Mc5X7X3p5CN1dlaK-27" style="edgeStyle=orthogonalEdgeStyle;rounded=0;orthogonalLoop=1;jettySize=auto;html=1;exitX=0.145;exitY=1;exitDx=0;exitDy=-4.35;exitPerimeter=0;entryX=1;entryY=0.5;entryDx=0;entryDy=0;startArrow=classic;startFill=1;endArrow=none;endFill=0;" edge="1" parent="1" source="HkC7Mc5X7X3p5CN1dlaK-29" target="HkC7Mc5X7X3p5CN1dlaK-33">
          <mxGeometry relative="1" as="geometry">
            <Array as="points">
              <mxPoint x="1027" y="3040" />
              <mxPoint x="970" y="3040" />
            </Array>
          </mxGeometry>
        </mxCell>
        <mxCell id="HkC7Mc5X7X3p5CN1dlaK-28" style="edgeStyle=orthogonalEdgeStyle;rounded=0;orthogonalLoop=1;jettySize=auto;html=1;exitX=0.855;exitY=1;exitDx=0;exitDy=-4.35;exitPerimeter=0;entryX=0;entryY=0.5;entryDx=0;entryDy=0;" edge="1" parent="1" source="HkC7Mc5X7X3p5CN1dlaK-29" target="HkC7Mc5X7X3p5CN1dlaK-24">
          <mxGeometry relative="1" as="geometry">
            <Array as="points">
              <mxPoint x="1113" y="2920" />
            </Array>
          </mxGeometry>
        </mxCell>
        <mxCell id="HkC7Mc5X7X3p5CN1dlaK-29" value="&lt;b&gt;&lt;font style=&quot;font-size: 14px;&quot;&gt;ANSWER KEY / QUESTION DATABASE (VECTOR DB)&lt;/font&gt;&lt;/b&gt;&lt;div&gt;&lt;b&gt;&lt;font style=&quot;font-size: 14px;&quot;&gt;&lt;br&gt;&lt;/font&gt;&lt;/b&gt;&lt;/div&gt;" style="shape=cylinder3;whiteSpace=wrap;html=1;boundedLbl=1;backgroundOutline=1;size=15;" vertex="1" parent="1">
          <mxGeometry x="1010" y="2500" width="120" height="130" as="geometry" />
        </mxCell>
        <mxCell id="HkC7Mc5X7X3p5CN1dlaK-30" style="edgeStyle=orthogonalEdgeStyle;rounded=0;orthogonalLoop=1;jettySize=auto;html=1;exitX=0.5;exitY=1;exitDx=0;exitDy=0;" edge="1" parent="1" source="HkC7Mc5X7X3p5CN1dlaK-31" target="HkC7Mc5X7X3p5CN1dlaK-32">
          <mxGeometry relative="1" as="geometry" />
        </mxCell>
        <mxCell id="HkC7Mc5X7X3p5CN1dlaK-31" value="Admin UI&lt;div&gt;(Modify Questions&lt;/div&gt;&lt;div&gt;&amp;amp; Answers, etc.)&lt;/div&gt;" style="rounded=0;whiteSpace=wrap;html=1;" vertex="1" parent="1">
          <mxGeometry x="850" y="2280" width="120" height="60" as="geometry" />
        </mxCell>
        <mxCell id="HkC7Mc5X7X3p5CN1dlaK-32" value="QUESTION MANAGEMENT SERVICE&lt;div&gt;(Update/Modify/etc.)&lt;/div&gt;" style="rounded=0;whiteSpace=wrap;html=1;" vertex="1" parent="1">
          <mxGeometry x="850" y="2400" width="120" height="60" as="geometry" />
        </mxCell>
        <mxCell id="HkC7Mc5X7X3p5CN1dlaK-33" value="Add / Upsert / Delete data to VectorDB" style="rounded=0;whiteSpace=wrap;html=1;" vertex="1" parent="1">
          <mxGeometry x="850" y="3020" width="120" height="60" as="geometry" />
        </mxCell>
        <mxCell id="HkC7Mc5X7X3p5CN1dlaK-34" style="edgeStyle=orthogonalEdgeStyle;rounded=0;orthogonalLoop=1;jettySize=auto;html=1;exitX=0.5;exitY=1;exitDx=0;exitDy=0;entryX=0.5;entryY=0;entryDx=0;entryDy=0;" edge="1" parent="1" source="HkC7Mc5X7X3p5CN1dlaK-35" target="HkC7Mc5X7X3p5CN1dlaK-33">
          <mxGeometry relative="1" as="geometry" />
        </mxCell>
        <mxCell id="HkC7Mc5X7X3p5CN1dlaK-35" value="Index data" style="rounded=0;whiteSpace=wrap;html=1;" vertex="1" parent="1">
          <mxGeometry x="850" y="2930" width="120" height="60" as="geometry" />
        </mxCell>
        <mxCell id="HkC7Mc5X7X3p5CN1dlaK-36" style="edgeStyle=orthogonalEdgeStyle;rounded=0;orthogonalLoop=1;jettySize=auto;html=1;exitX=0.5;exitY=1;exitDx=0;exitDy=0;entryX=0.5;entryY=0;entryDx=0;entryDy=0;" edge="1" parent="1" source="HkC7Mc5X7X3p5CN1dlaK-37" target="HkC7Mc5X7X3p5CN1dlaK-35">
          <mxGeometry relative="1" as="geometry" />
        </mxCell>
        <mxCell id="HkC7Mc5X7X3p5CN1dlaK-37" value="Apply Embedding Model" style="rounded=0;whiteSpace=wrap;html=1;" vertex="1" parent="1">
          <mxGeometry x="850" y="2850" width="120" height="60" as="geometry" />
        </mxCell>
        <mxCell id="HkC7Mc5X7X3p5CN1dlaK-38" style="edgeStyle=orthogonalEdgeStyle;rounded=0;orthogonalLoop=1;jettySize=auto;html=1;exitX=0.5;exitY=1;exitDx=0;exitDy=0;exitPerimeter=0;entryX=0.5;entryY=0;entryDx=0;entryDy=0;" edge="1" parent="1" source="HkC7Mc5X7X3p5CN1dlaK-39" target="HkC7Mc5X7X3p5CN1dlaK-26">
          <mxGeometry relative="1" as="geometry" />
        </mxCell>
        <mxCell id="HkC7Mc5X7X3p5CN1dlaK-39" value="&lt;b&gt;&lt;font style=&quot;font-size: 14px;&quot;&gt;RAW ANSWER KEY / QUESTION DATABASE&amp;nbsp;&lt;/font&gt;&lt;/b&gt;&lt;div&gt;&lt;b&gt;&lt;font style=&quot;font-size: 14px;&quot;&gt;(Data Store, unspecified)&lt;/font&gt;&lt;/b&gt;&lt;div&gt;&lt;b&gt;&lt;font style=&quot;font-size: 14px;&quot;&gt;&lt;br&gt;&lt;/font&gt;&lt;/b&gt;&lt;/div&gt;&lt;/div&gt;" style="shape=cylinder3;whiteSpace=wrap;html=1;boundedLbl=1;backgroundOutline=1;size=15;strokeColor=default;align=center;verticalAlign=middle;fontFamily=Helvetica;fontSize=12;fontColor=default;fillColor=default;" vertex="1" parent="1">
          <mxGeometry x="850" y="2500" width="120" height="130" as="geometry" />
        </mxCell>
        <mxCell id="HkC7Mc5X7X3p5CN1dlaK-40" style="edgeStyle=orthogonalEdgeStyle;rounded=0;orthogonalLoop=1;jettySize=auto;html=1;entryX=0;entryY=0.5;entryDx=0;entryDy=0;" edge="1" parent="1" source="HkC7Mc5X7X3p5CN1dlaK-41" target="HkC7Mc5X7X3p5CN1dlaK-31">
          <mxGeometry relative="1" as="geometry" />
        </mxCell>
        <mxCell id="HkC7Mc5X7X3p5CN1dlaK-41" value="ADMIN" style="shape=umlActor;verticalLabelPosition=bottom;verticalAlign=top;html=1;outlineConnect=0;" vertex="1" parent="1">
          <mxGeometry x="740" y="2280" width="30" height="60" as="geometry" />
        </mxCell>
        <mxCell id="HkC7Mc5X7X3p5CN1dlaK-42" style="edgeStyle=orthogonalEdgeStyle;rounded=0;orthogonalLoop=1;jettySize=auto;html=1;exitX=0.5;exitY=1;exitDx=0;exitDy=0;entryX=0.5;entryY=0;entryDx=0;entryDy=0;entryPerimeter=0;" edge="1" parent="1" source="HkC7Mc5X7X3p5CN1dlaK-32" target="HkC7Mc5X7X3p5CN1dlaK-39">
          <mxGeometry relative="1" as="geometry" />
        </mxCell>
        <mxCell id="HkC7Mc5X7X3p5CN1dlaK-43" style="edgeStyle=orthogonalEdgeStyle;rounded=0;orthogonalLoop=1;jettySize=auto;html=1;entryX=0;entryY=0.5;entryDx=0;entryDy=0;" edge="1" parent="1" source="HkC7Mc5X7X3p5CN1dlaK-44" target="HkC7Mc5X7X3p5CN1dlaK-47">
          <mxGeometry relative="1" as="geometry" />
        </mxCell>
        <mxCell id="HkC7Mc5X7X3p5CN1dlaK-44" value="&lt;div&gt;&lt;br&gt;&lt;/div&gt;&lt;div&gt;LLM Prompting (&lt;/div&gt;question that was asked&lt;br&gt;Candidate Exam answer + Top &amp;lt;K&amp;gt; Answers Data&lt;div&gt;&lt;div&gt;)&lt;/div&gt;&lt;/div&gt;" style="rounded=0;whiteSpace=wrap;html=1;" vertex="1" parent="1">
          <mxGeometry x="1410" y="2870" width="160" height="100" as="geometry" />
        </mxCell>
        <mxCell id="HkC7Mc5X7X3p5CN1dlaK-45" value="Normalize LLM response data and store to db" style="rounded=0;whiteSpace=wrap;html=1;" vertex="1" parent="1">
          <mxGeometry x="1810" y="2890" width="120" height="60" as="geometry" />
        </mxCell>
        <mxCell id="HkC7Mc5X7X3p5CN1dlaK-46" style="edgeStyle=orthogonalEdgeStyle;rounded=0;orthogonalLoop=1;jettySize=auto;html=1;entryX=0;entryY=0.5;entryDx=0;entryDy=0;" edge="1" parent="1" source="HkC7Mc5X7X3p5CN1dlaK-47" target="HkC7Mc5X7X3p5CN1dlaK-45">
          <mxGeometry relative="1" as="geometry" />
        </mxCell>
        <mxCell id="HkC7Mc5X7X3p5CN1dlaK-47" value="LLM Processing" style="rounded=0;whiteSpace=wrap;html=1;" vertex="1" parent="1">
          <mxGeometry x="1630" y="2890" width="120" height="60" as="geometry" />
        </mxCell>
        <mxCell id="HkC7Mc5X7X3p5CN1dlaK-48" value="&lt;b&gt;&lt;font style=&quot;font-size: 14px;&quot;&gt;AI GRADED CANDIDATE DATABASE&lt;/font&gt;&lt;/b&gt;&lt;div&gt;&lt;b&gt;&lt;font style=&quot;font-size: 14px;&quot;&gt;&lt;br&gt;&lt;/font&gt;&lt;/b&gt;&lt;/div&gt;&lt;div&gt;&lt;b&gt;&lt;font style=&quot;font-size: 14px;&quot;&gt;&lt;br&gt;&lt;/font&gt;&lt;/b&gt;&lt;/div&gt;" style="shape=cylinder3;whiteSpace=wrap;html=1;boundedLbl=1;backgroundOutline=1;size=15;strokeColor=default;align=center;verticalAlign=middle;fontFamily=Helvetica;fontSize=12;fontColor=default;fillColor=default;" vertex="1" parent="1">
          <mxGeometry x="1810" y="2580" width="120" height="130" as="geometry" />
        </mxCell>
        <mxCell id="HkC7Mc5X7X3p5CN1dlaK-49" style="edgeStyle=orthogonalEdgeStyle;rounded=0;orthogonalLoop=1;jettySize=auto;html=1;entryX=0.5;entryY=1;entryDx=0;entryDy=0;entryPerimeter=0;" edge="1" parent="1" source="HkC7Mc5X7X3p5CN1dlaK-45" target="HkC7Mc5X7X3p5CN1dlaK-48">
          <mxGeometry relative="1" as="geometry" />
        </mxCell>
        <mxCell id="HkC7Mc5X7X3p5CN1dlaK-50" style="edgeStyle=orthogonalEdgeStyle;rounded=0;orthogonalLoop=1;jettySize=auto;html=1;entryX=0.5;entryY=0;entryDx=0;entryDy=0;" edge="1" parent="1" source="HkC7Mc5X7X3p5CN1dlaK-51" target="HkC7Mc5X7X3p5CN1dlaK-37">
          <mxGeometry relative="1" as="geometry" />
        </mxCell>
        <mxCell id="HkC7Mc5X7X3p5CN1dlaK-51" value="Chunk data&amp;nbsp;&lt;div&gt;(if needed)&lt;/div&gt;" style="rounded=0;whiteSpace=wrap;html=1;" vertex="1" parent="1">
          <mxGeometry x="850" y="2760" width="120" height="60" as="geometry" />
        </mxCell>
        <mxCell id="7ymmeGiWS2FybJr41jOW-1" value="&lt;b&gt;QuestionID: question1&lt;/b&gt;&lt;div&gt;&lt;b&gt;VERSION 1&lt;/b&gt;&lt;div&gt;How does RAG AI work?&lt;/div&gt;&lt;div&gt;&lt;span style=&quot;background-color: initial;&quot;&gt;DateAdded: 02/02/1990&lt;/span&gt;&lt;br&gt;&lt;/div&gt;&lt;div&gt;Grading Criteria / Rubric:&lt;/div&gt;&lt;div&gt;Associated Conepts:&amp;nbsp; LLM, RAG, AI, etc&lt;/div&gt;&lt;div&gt;Accepted Solution Information:&amp;nbsp; &amp;lt;good answers&amp;gt;&lt;/div&gt;&lt;div&gt;Embedding: [12034912, 120349120934, 1041023491, etc...]&lt;/div&gt;&lt;div&gt;&lt;br&gt;&lt;/div&gt;&lt;/div&gt;&lt;div&gt;&lt;br&gt;&lt;/div&gt;" style="rounded=0;whiteSpace=wrap;html=1;align=left;horizontal=1;verticalAlign=top;" vertex="1" parent="1">
          <mxGeometry x="500" y="1660" width="280" height="140" as="geometry" />
        </mxCell>
        <mxCell id="E_5tku2HLhk3aheETMSr-1" value="&lt;b&gt;QuestionID: question1&lt;/b&gt;&lt;div&gt;&lt;div&gt;How does RAG AI work?&lt;/div&gt;&lt;div&gt;&lt;span style=&quot;background-color: initial;&quot;&gt;DateAdded: 02/02/1990&lt;/span&gt;&lt;br&gt;&lt;/div&gt;&lt;div&gt;Author&lt;/div&gt;&lt;div&gt;Version: 1&lt;/div&gt;&lt;div&gt;&lt;span style=&quot;background-color: initial;&quot;&gt;Grading Criteria / Rubric:&lt;/span&gt;&lt;/div&gt;&lt;div&gt;Associated Conepts:&amp;nbsp; LLM, RAG, AI, etc&lt;/div&gt;&lt;div&gt;Accepted Solution Information:&amp;nbsp; &amp;lt;good answers&amp;gt;&lt;/div&gt;&lt;/div&gt;" style="rounded=0;whiteSpace=wrap;html=1;align=left;horizontal=1;verticalAlign=top;" vertex="1" parent="1">
          <mxGeometry x="2610" y="2700" width="280" height="120" as="geometry" />
        </mxCell>
      </root>
    </mxGraphModel>
  </diagram>
  <diagram id="OxG9ReDJwyxeF5Jl937w" name="Indexing Options">
    <mxGraphModel dx="329" dy="1346" grid="1" gridSize="10" guides="1" tooltips="1" connect="1" arrows="1" fold="1" page="1" pageScale="1" pageWidth="850" pageHeight="1100" math="0" shadow="0">
      <root>
        <mxCell id="0" />
        <mxCell id="1" parent="0" />
        <mxCell id="o1j_lH1K5KizX1-DXXIF-6" value="&lt;div style=&quot;&quot;&gt;&lt;b&gt;&lt;font style=&quot;font-size: 22px;&quot;&gt;OPTION 5&lt;/font&gt;&lt;/b&gt;&lt;/div&gt;&lt;div style=&quot;&quot;&gt;&lt;span style=&quot;font-size: 18px;&quot;&gt;5.) Create parent-child relationship between top level meta data and answers&lt;/span&gt;&lt;b&gt;&lt;font style=&quot;font-size: 22px;&quot;&gt;&lt;br&gt;&lt;/font&gt;&lt;/b&gt;&lt;/div&gt;" style="rounded=0;whiteSpace=wrap;html=1;verticalAlign=top;align=left;" vertex="1" parent="1">
          <mxGeometry x="2277.5" y="1370" width="1170" height="1240" as="geometry" />
        </mxCell>
        <mxCell id="-IwFFGHjHIB1J5n7SxKi-1" value="&lt;b&gt;Options&lt;/b&gt;:&lt;div&gt;&lt;br&gt;&lt;div&gt;&lt;strike&gt;1.) Single Index with all questions, answers, versions, etc.&lt;/strike&gt; (Ineffective cost, having to reindex anytime there is a change to any given question)&lt;/div&gt;&lt;div&gt;&lt;br&gt;&lt;/div&gt;&lt;div&gt;2.) An Index per question with all versions / answers (Consider data cleanup / index cleanup for old data)&lt;br&gt;&lt;br&gt;&lt;/div&gt;&lt;div&gt;&lt;b&gt;&lt;font style=&quot;font-size: 21px;&quot; color=&quot;#006600&quot;&gt;3.) An Index per question &amp;amp; version (winner)&lt;/font&gt;&lt;/b&gt;&lt;/div&gt;&lt;/div&gt;&lt;div&gt;&lt;b&gt;&lt;font style=&quot;font-size: 21px;&quot; color=&quot;#006600&quot;&gt;**ADR&lt;/font&gt;&lt;/b&gt;&lt;/div&gt;&lt;div&gt;&lt;br&gt;&lt;/div&gt;&lt;div&gt;4.) Store embeddings and content separately&lt;/div&gt;&lt;div&gt;&lt;br&gt;&lt;/div&gt;&lt;div&gt;5.) Create parent-child relationship between top level meta data and answers&lt;/div&gt;" style="rounded=1;whiteSpace=wrap;html=1;fontSize=18;align=left;verticalAlign=top;arcSize=0;" vertex="1" parent="1">
          <mxGeometry x="1720" y="60" width="500" height="380" as="geometry" />
        </mxCell>
        <mxCell id="IUI847j3i8lRyXXEy65F-1" style="edgeStyle=orthogonalEdgeStyle;rounded=0;orthogonalLoop=1;jettySize=auto;html=1;exitX=0.5;exitY=1;exitDx=0;exitDy=0;entryX=0;entryY=0.5;entryDx=0;entryDy=0;" edge="1" parent="1" source="IUI847j3i8lRyXXEy65F-3" target="IUI847j3i8lRyXXEy65F-4">
          <mxGeometry relative="1" as="geometry" />
        </mxCell>
        <mxCell id="IUI847j3i8lRyXXEy65F-2" style="edgeStyle=orthogonalEdgeStyle;rounded=0;orthogonalLoop=1;jettySize=auto;html=1;exitX=0.75;exitY=1;exitDx=0;exitDy=0;entryX=0;entryY=0.5;entryDx=0;entryDy=0;" edge="1" parent="1" source="IUI847j3i8lRyXXEy65F-3" target="IUI847j3i8lRyXXEy65F-5">
          <mxGeometry relative="1" as="geometry" />
        </mxCell>
        <mxCell id="IUI847j3i8lRyXXEy65F-3" value="&lt;b&gt;Question 1: question1&lt;/b&gt;&lt;div&gt;&lt;br&gt;&lt;/div&gt;&lt;div&gt;Id: 8888888&lt;/div&gt;&lt;div&gt;QuestionID&lt;/div&gt;&lt;div&gt;Question:&amp;nbsp; What is RAG AI?&lt;/div&gt;&lt;div&gt;Author&lt;/div&gt;&lt;div&gt;&lt;span style=&quot;background-color: initial;&quot;&gt;Date Added&lt;/span&gt;&lt;br&gt;&lt;/div&gt;&lt;div&gt;&lt;span style=&quot;background-color: initial;&quot;&gt;&lt;br&gt;&lt;/span&gt;&lt;/div&gt;&lt;div&gt;&lt;br&gt;&lt;/div&gt;" style="rounded=0;whiteSpace=wrap;html=1;align=left;horizontal=1;verticalAlign=top;" vertex="1" parent="1">
          <mxGeometry x="2330" y="1470" width="345" height="150" as="geometry" />
        </mxCell>
        <mxCell id="IUI847j3i8lRyXXEy65F-4" value="&lt;div&gt;&lt;b&gt;Question 1 Answers&lt;/b&gt;&lt;/div&gt;&lt;div&gt;&lt;b&gt;&lt;br&gt;&lt;/b&gt;&lt;/div&gt;&lt;div&gt;&lt;b&gt;Version 1&lt;/b&gt;&lt;/div&gt;&lt;div&gt;&lt;div&gt;&lt;b&gt;parent ID:&amp;nbsp;&lt;/b&gt;&lt;span style=&quot;background-color: initial;&quot;&gt;8888888&lt;/span&gt;&lt;/div&gt;&lt;div&gt;&lt;b&gt;&amp;lt;good answers&amp;gt;&lt;/b&gt;&lt;/div&gt;&lt;div&gt;&lt;b&gt;&amp;lt;embeddings&amp;gt;&lt;/b&gt;&lt;/div&gt;&lt;div&gt;&lt;b&gt;&amp;lt;date added&amp;gt;&lt;/b&gt;&lt;/div&gt;&lt;/div&gt;" style="rounded=0;whiteSpace=wrap;html=1;align=left;horizontal=1;verticalAlign=top;" vertex="1" parent="1">
          <mxGeometry x="2690" y="1770" width="345" height="150" as="geometry" />
        </mxCell>
        <mxCell id="IUI847j3i8lRyXXEy65F-5" value="&lt;div&gt;&lt;b&gt;Question 1 Answers&lt;/b&gt;&lt;/div&gt;&lt;div&gt;&lt;b&gt;&lt;br&gt;&lt;/b&gt;&lt;/div&gt;&lt;div&gt;&lt;b&gt;Version 2&lt;/b&gt;&lt;/div&gt;&lt;div&gt;&lt;b&gt;parent ID:&amp;nbsp;&lt;/b&gt;&lt;span style=&quot;background-color: initial;&quot;&gt;8888888&lt;/span&gt;&lt;/div&gt;&lt;div&gt;&lt;b&gt;&amp;lt;good answers&amp;gt;&lt;/b&gt;&lt;/div&gt;&lt;div&gt;&lt;b style=&quot;background-color: initial;&quot;&gt;&amp;lt;embeddings&amp;gt;&lt;/b&gt;&lt;/div&gt;&lt;div&gt;&lt;b&gt;&amp;lt;date added&amp;gt;&lt;/b&gt;&lt;/div&gt;" style="rounded=0;whiteSpace=wrap;html=1;align=left;horizontal=1;verticalAlign=top;" vertex="1" parent="1">
          <mxGeometry x="2690" y="1610" width="345" height="150" as="geometry" />
        </mxCell>
        <mxCell id="o1j_lH1K5KizX1-DXXIF-1" value="&lt;div&gt;&lt;b&gt;&lt;font style=&quot;font-size: 22px;&quot;&gt;OPTION 2&lt;/font&gt;&lt;/b&gt;&lt;/div&gt;&lt;div&gt;&lt;span style=&quot;font-size: 18px;&quot;&gt;2.) An Index per question with all versions / answers (Consider data cleanup / index cleanup for old data)&lt;/span&gt;&lt;br style=&quot;font-size: 18px;&quot;&gt;&lt;/div&gt;&lt;div&gt;&lt;span style=&quot;font-size: 18px;&quot;&gt;&lt;br&gt;&lt;/span&gt;&lt;/div&gt;&lt;b&gt;QuestionID: question1&lt;/b&gt;&lt;div&gt;&lt;div&gt;&lt;b&gt;VERSION 1&lt;/b&gt;&lt;div&gt;How does RAG AI work?&lt;/div&gt;&lt;div&gt;&lt;span style=&quot;background-color: initial;&quot;&gt;DateAdded: 02/02/1990&lt;/span&gt;&lt;br&gt;&lt;/div&gt;&lt;div&gt;Grading Criteria / Rubric:&lt;/div&gt;&lt;div&gt;Associated Conepts:&amp;nbsp; LLM, RAG, AI, etc&lt;/div&gt;&lt;div&gt;Accepted Solution Information:&amp;nbsp; &amp;lt;good answers&amp;gt;&lt;/div&gt;&lt;div&gt;Embedding: [12034912, 120349120934, 1041023491, etc...]&lt;/div&gt;&lt;div&gt;&lt;br&gt;&lt;/div&gt;&lt;/div&gt;&lt;div&gt;&lt;b&gt;VERSION 2&lt;/b&gt;&lt;div&gt;How does RAG AI work?&lt;/div&gt;&lt;div&gt;&lt;span style=&quot;background-color: initial;&quot;&gt;DateAdded: 02/02/1990&lt;/span&gt;&lt;br&gt;&lt;/div&gt;&lt;div&gt;&lt;span style=&quot;background-color: initial;&quot;&gt;Grading Criteria / Rubric:&lt;/span&gt;&lt;/div&gt;&lt;div&gt;&lt;span style=&quot;background-color: initial;&quot;&gt;Associated Conepts:&amp;nbsp; LLM, RAG, AI, etc&lt;/span&gt;&lt;br&gt;&lt;/div&gt;&lt;div&gt;Accepted Solution Information:&amp;nbsp; &amp;lt;good answers&amp;gt;&lt;/div&gt;&lt;div&gt;Embedding: [12034912, 120349120934, 1041023491, etc...]&lt;/div&gt;&lt;div&gt;&lt;br&gt;&lt;/div&gt;&lt;div&gt;.....&lt;/div&gt;&lt;/div&gt;&lt;div&gt;&lt;br&gt;&lt;/div&gt;&lt;div&gt;&lt;b&gt;VERSION 100000000&lt;/b&gt;&lt;/div&gt;&lt;/div&gt;" style="rounded=0;whiteSpace=wrap;html=1;align=left;horizontal=1;verticalAlign=top;" vertex="1" parent="1">
          <mxGeometry x="2307.5" y="10" width="332.5" height="480" as="geometry" />
        </mxCell>
        <mxCell id="o1j_lH1K5KizX1-DXXIF-2" value="&lt;div&gt;&lt;b&gt;&lt;font style=&quot;font-size: 22px;&quot;&gt;OPTION 3&lt;/font&gt;&lt;/b&gt;&lt;b&gt;&lt;br&gt;&lt;/b&gt;&lt;/div&gt;&lt;div&gt;&lt;div&gt;3.) An Index per question &amp;amp; version&lt;/div&gt;&lt;div&gt;&lt;br style=&quot;font-size: 18px;&quot;&gt;&lt;/div&gt;&lt;/div&gt;&lt;div&gt;&lt;b&gt;&lt;font style=&quot;font-size: 22px;&quot;&gt;&lt;br&gt;&lt;/font&gt;&lt;/b&gt;&lt;/div&gt;&lt;b&gt;Question 1: question1&lt;/b&gt;&lt;div&gt;&lt;b&gt;VERSION 2&lt;/b&gt;&lt;/div&gt;&lt;div&gt;&lt;b&gt;ActiveVersion?&amp;nbsp; TRUE&lt;br&gt;&lt;/b&gt;&lt;div&gt;How does RAG AI work?&lt;/div&gt;&lt;div&gt;&lt;span style=&quot;background-color: initial;&quot;&gt;DateAdded: 02/02/1990&lt;/span&gt;&lt;br&gt;&lt;/div&gt;&lt;div&gt;&lt;span style=&quot;background-color: initial;&quot;&gt;Grading Criteria / Rubric:&lt;/span&gt;&lt;/div&gt;&lt;div&gt;&lt;span style=&quot;background-color: initial;&quot;&gt;Associated Conepts:&amp;nbsp; LLM, RAG, AI, etc&lt;/span&gt;&lt;br&gt;&lt;/div&gt;&lt;div&gt;&lt;span style=&quot;background-color: initial;&quot;&gt;Accepted Solution Information: [&lt;/span&gt;&lt;/div&gt;&lt;div&gt;&amp;nbsp; Answer1:&amp;nbsp; English is a language&lt;/div&gt;&lt;div&gt;&amp;nbsp; Answer2:&amp;nbsp; A language is English&lt;/div&gt;&lt;div&gt;&amp;nbsp; Answer3: One of the languags is English&lt;/div&gt;&lt;div&gt;&lt;span style=&quot;background-color: initial;&quot;&gt;]&lt;/span&gt;&lt;/div&gt;&lt;div&gt;&lt;span style=&quot;background-color: initial;&quot;&gt;Embedding: [12034912, 120349120934, 1041023491, etc...1501586815819&lt;/span&gt;&lt;span style=&quot;background-color: initial;&quot;&gt;]&lt;/span&gt;&lt;/div&gt;&lt;div&gt;&lt;br&gt;&lt;/div&gt;&lt;/div&gt;" style="rounded=0;whiteSpace=wrap;html=1;align=left;horizontal=1;verticalAlign=top;" vertex="1" parent="1">
          <mxGeometry x="2585" y="530" width="280" height="310" as="geometry" />
        </mxCell>
        <mxCell id="o1j_lH1K5KizX1-DXXIF-3" value="&lt;div&gt;&lt;b&gt;&lt;font style=&quot;font-size: 22px;&quot;&gt;OPTION 3&lt;/font&gt;&lt;/b&gt;&lt;/div&gt;&lt;div&gt;&lt;div&gt;3.) An Index per question &amp;amp; version&lt;/div&gt;&lt;div&gt;&lt;br style=&quot;font-size: 18px;&quot;&gt;&lt;/div&gt;&lt;/div&gt;&lt;div&gt;&lt;b&gt;&lt;font style=&quot;font-size: 22px;&quot;&gt;&lt;br&gt;&lt;/font&gt;&lt;/b&gt;&lt;/div&gt;&lt;b&gt;QuestionID: question1&lt;/b&gt;&lt;div&gt;&lt;b&gt;VERSION 1&lt;/b&gt;&lt;/div&gt;&lt;div&gt;&lt;b&gt;ActiveVersion?&amp;nbsp; FALSE&lt;br&gt;&lt;/b&gt;&lt;div&gt;How does RAG AI work?&lt;/div&gt;&lt;div&gt;&lt;span style=&quot;background-color: initial;&quot;&gt;DateAdded: 02/02/1990&lt;/span&gt;&lt;br&gt;&lt;/div&gt;&lt;div&gt;Grading Criteria / Rubric:&lt;/div&gt;&lt;div&gt;Associated Conepts:&amp;nbsp; LLM, RAG, AI, etc&lt;/div&gt;&lt;div&gt;&lt;span style=&quot;background-color: initial;&quot;&gt;Accepted Solution Information: [&lt;/span&gt;&lt;br&gt;&lt;/div&gt;&lt;div&gt;&lt;div&gt;&amp;nbsp; Answer1:&amp;nbsp; English is a language&lt;/div&gt;&lt;div&gt;&lt;span style=&quot;background-color: initial;&quot;&gt;]&lt;/span&gt;&lt;/div&gt;&lt;/div&gt;&lt;div&gt;Embedding: [12034912, 120349120934,&amp;nbsp;&lt;/div&gt;&lt;div&gt;1041023491, etc...]&lt;/div&gt;&lt;/div&gt;" style="rounded=0;whiteSpace=wrap;html=1;align=left;horizontal=1;verticalAlign=top;" vertex="1" parent="1">
          <mxGeometry x="2290" y="530" width="280" height="310" as="geometry" />
        </mxCell>
        <mxCell id="o1j_lH1K5KizX1-DXXIF-7" value="&lt;div style=&quot;&quot;&gt;&lt;b&gt;&lt;font style=&quot;font-size: 22px;&quot;&gt;OPTION 4&lt;/font&gt;&lt;/b&gt;&lt;/div&gt;&lt;div style=&quot;&quot;&gt;&lt;div&gt;4.) Store embeddings and content separately&lt;/div&gt;&lt;div&gt;&lt;br style=&quot;font-size: 18px;&quot;&gt;&lt;/div&gt;&lt;/div&gt;" style="rounded=0;whiteSpace=wrap;html=1;verticalAlign=top;align=left;" vertex="1" parent="1">
          <mxGeometry x="2290" y="890" width="760" height="450" as="geometry" />
        </mxCell>
        <mxCell id="o1j_lH1K5KizX1-DXXIF-8" value="&lt;div&gt;&lt;b&gt;&lt;font style=&quot;font-size: 22px;&quot;&gt;OPTION 4 *Vector DB&lt;/font&gt;&lt;/b&gt;&lt;/div&gt;&lt;div&gt;&lt;b&gt;&lt;font style=&quot;font-size: 22px;&quot;&gt;&lt;br&gt;&lt;/font&gt;&lt;/b&gt;&lt;/div&gt;&lt;b&gt;QuestionID: question1&lt;/b&gt;&lt;div&gt;&lt;div&gt;Embedding: [12034912, 120349120934, 1041023491, etc...]&lt;/div&gt;&lt;/div&gt;" style="rounded=0;whiteSpace=wrap;html=1;align=left;horizontal=1;verticalAlign=top;" vertex="1" parent="1">
          <mxGeometry x="2333.75" y="970" width="280" height="310" as="geometry" />
        </mxCell>
        <mxCell id="o1j_lH1K5KizX1-DXXIF-9" value="&lt;div&gt;&lt;b&gt;&lt;font style=&quot;font-size: 22px;&quot;&gt;OPTION 4 *Content Store&lt;/font&gt;&lt;/b&gt;&lt;/div&gt;&lt;div&gt;&lt;b&gt;&lt;font style=&quot;font-size: 22px;&quot;&gt;&lt;br&gt;&lt;/font&gt;&lt;/b&gt;&lt;/div&gt;&lt;b&gt;QuestionID: question1&lt;/b&gt;&lt;div&gt;&lt;b&gt;VERSION 1&lt;/b&gt;&lt;div&gt;How does RAG AI work?&lt;/div&gt;&lt;div&gt;&lt;span style=&quot;background-color: initial;&quot;&gt;DateAdded: 02/02/1990&lt;/span&gt;&lt;br&gt;&lt;/div&gt;&lt;div&gt;Grading Criteria / Rubric:&lt;/div&gt;&lt;div&gt;Associated Conepts:&amp;nbsp; LLM, RAG, AI, etc&lt;/div&gt;&lt;div&gt;Accepted Solution Information:&amp;nbsp; &amp;lt;good answers&amp;gt;&lt;/div&gt;&lt;/div&gt;" style="rounded=0;whiteSpace=wrap;html=1;align=left;horizontal=1;verticalAlign=top;" vertex="1" parent="1">
          <mxGeometry x="2650" y="970" width="280" height="310" as="geometry" />
        </mxCell>
        <mxCell id="o1j_lH1K5KizX1-DXXIF-11" value="&lt;div&gt;&lt;b&gt;&lt;font style=&quot;font-size: 22px;&quot;&gt;OPTION 3&lt;/font&gt;&lt;/b&gt;&lt;b&gt;&lt;br&gt;&lt;/b&gt;&lt;/div&gt;&lt;div&gt;&lt;div&gt;3.) An Index per question &amp;amp; version&lt;/div&gt;&lt;div&gt;&lt;br style=&quot;font-size: 18px;&quot;&gt;&lt;/div&gt;&lt;/div&gt;&lt;div&gt;&lt;b&gt;&lt;font style=&quot;font-size: 22px;&quot;&gt;&lt;br&gt;&lt;/font&gt;&lt;/b&gt;&lt;/div&gt;&lt;b&gt;Question 1: question1&lt;/b&gt;&lt;div&gt;&lt;b&gt;VERSION ..... N&lt;/b&gt;&lt;div&gt;How does RAG AI work?&lt;/div&gt;&lt;div&gt;&lt;span style=&quot;background-color: initial;&quot;&gt;DateAdded: 02/02/1990&lt;/span&gt;&lt;br&gt;&lt;/div&gt;&lt;div&gt;&lt;span style=&quot;background-color: initial;&quot;&gt;Grading Criteria / Rubric:&lt;/span&gt;&lt;/div&gt;&lt;div&gt;&lt;span style=&quot;background-color: initial;&quot;&gt;Associated Conepts:&amp;nbsp; LLM, RAG, AI, etc&lt;/span&gt;&lt;br&gt;&lt;/div&gt;&lt;div&gt;&lt;span style=&quot;background-color: initial;&quot;&gt;Accepted Solution Information: [&lt;/span&gt;&lt;/div&gt;&lt;div&gt;&amp;nbsp; Answer1:&amp;nbsp; English is a language&lt;/div&gt;&lt;div&gt;&amp;nbsp; Answer2:&amp;nbsp; A language is English&lt;/div&gt;&lt;div&gt;&amp;nbsp; Answer3: One of the languags is English&lt;/div&gt;&lt;div&gt;&amp;nbsp; Answer4:&amp;nbsp; English its one of them&lt;/div&gt;&lt;div&gt;&amp;nbsp; Anaswer5:&amp;nbsp; Yep, that&#39;s it&lt;/div&gt;&lt;div&gt;&lt;span style=&quot;background-color: initial;&quot;&gt;]&lt;/span&gt;&lt;/div&gt;&lt;div&gt;&lt;span style=&quot;background-color: initial;&quot;&gt;Embedding: [12034912, 120349120934, 1041023491, etc...]&lt;/span&gt;&lt;br&gt;&lt;/div&gt;&lt;div&gt;&lt;br&gt;&lt;/div&gt;&lt;/div&gt;" style="rounded=0;whiteSpace=wrap;html=1;align=left;horizontal=1;verticalAlign=top;" vertex="1" parent="1">
          <mxGeometry x="2920" y="530" width="280" height="310" as="geometry" />
        </mxCell>
        <mxCell id="o1j_lH1K5KizX1-DXXIF-14" style="edgeStyle=orthogonalEdgeStyle;rounded=0;orthogonalLoop=1;jettySize=auto;html=1;exitX=0.5;exitY=1;exitDx=0;exitDy=0;entryX=0;entryY=0.5;entryDx=0;entryDy=0;" edge="1" parent="1" source="o1j_lH1K5KizX1-DXXIF-16" target="o1j_lH1K5KizX1-DXXIF-17">
          <mxGeometry relative="1" as="geometry" />
        </mxCell>
        <mxCell id="o1j_lH1K5KizX1-DXXIF-15" style="edgeStyle=orthogonalEdgeStyle;rounded=0;orthogonalLoop=1;jettySize=auto;html=1;exitX=0.75;exitY=1;exitDx=0;exitDy=0;entryX=0;entryY=0.5;entryDx=0;entryDy=0;" edge="1" parent="1" source="o1j_lH1K5KizX1-DXXIF-16" target="o1j_lH1K5KizX1-DXXIF-18">
          <mxGeometry relative="1" as="geometry" />
        </mxCell>
        <mxCell id="o1j_lH1K5KizX1-DXXIF-20" style="edgeStyle=orthogonalEdgeStyle;rounded=0;orthogonalLoop=1;jettySize=auto;html=1;exitX=0.25;exitY=1;exitDx=0;exitDy=0;entryX=0;entryY=0.5;entryDx=0;entryDy=0;" edge="1" parent="1" source="o1j_lH1K5KizX1-DXXIF-16" target="o1j_lH1K5KizX1-DXXIF-19">
          <mxGeometry relative="1" as="geometry" />
        </mxCell>
        <mxCell id="o1j_lH1K5KizX1-DXXIF-16" value="&lt;b&gt;Question 2: question2&lt;/b&gt;&lt;div&gt;&lt;br&gt;&lt;/div&gt;&lt;div&gt;Id: 77777&lt;/div&gt;&lt;div&gt;QuestionID&lt;/div&gt;&lt;div&gt;Question:&amp;nbsp; What is something else?&lt;/div&gt;&lt;div&gt;Author&lt;/div&gt;&lt;div&gt;&lt;span style=&quot;background-color: initial;&quot;&gt;Date Added&lt;/span&gt;&lt;br&gt;&lt;/div&gt;&lt;div&gt;&lt;span style=&quot;background-color: initial;&quot;&gt;&lt;br&gt;&lt;/span&gt;&lt;/div&gt;&lt;div&gt;&lt;br&gt;&lt;/div&gt;" style="rounded=0;whiteSpace=wrap;html=1;align=left;horizontal=1;verticalAlign=top;" vertex="1" parent="1">
          <mxGeometry x="2333.75" y="1950" width="345" height="150" as="geometry" />
        </mxCell>
        <mxCell id="o1j_lH1K5KizX1-DXXIF-17" value="&lt;div&gt;&lt;b&gt;Question 2 Answers&lt;/b&gt;&lt;/div&gt;&lt;div&gt;&lt;b&gt;&lt;br&gt;&lt;/b&gt;&lt;/div&gt;&lt;div&gt;&lt;b&gt;Version 2&lt;/b&gt;&lt;/div&gt;&lt;div&gt;&lt;div&gt;&lt;b&gt;parent ID:&amp;nbsp;&lt;/b&gt;&lt;span style=&quot;background-color: initial;&quot;&gt;77777&lt;/span&gt;&lt;/div&gt;&lt;div&gt;&lt;b&gt;&amp;lt;good answers&amp;gt;&lt;/b&gt;&lt;/div&gt;&lt;div&gt;&lt;b&gt;&amp;lt;embeddings&amp;gt;&lt;/b&gt;&lt;/div&gt;&lt;div&gt;&lt;b&gt;&amp;lt;date added&amp;gt;&lt;/b&gt;&lt;/div&gt;&lt;/div&gt;" style="rounded=0;whiteSpace=wrap;html=1;align=left;horizontal=1;verticalAlign=top;" vertex="1" parent="1">
          <mxGeometry x="2693.75" y="2250" width="345" height="150" as="geometry" />
        </mxCell>
        <mxCell id="o1j_lH1K5KizX1-DXXIF-18" value="&lt;div&gt;&lt;b&gt;Question 2 Answers&lt;/b&gt;&lt;/div&gt;&lt;div&gt;&lt;b&gt;&lt;br&gt;&lt;/b&gt;&lt;/div&gt;&lt;div&gt;&lt;b&gt;Version 1&lt;/b&gt;&lt;/div&gt;&lt;div&gt;&lt;b&gt;parent ID:&amp;nbsp;&lt;/b&gt;&lt;span style=&quot;background-color: initial;&quot;&gt;77777&lt;/span&gt;&lt;/div&gt;&lt;div&gt;&lt;b&gt;&amp;lt;good answers&amp;gt;&lt;/b&gt;&lt;/div&gt;&lt;div&gt;&lt;b style=&quot;background-color: initial;&quot;&gt;&amp;lt;embeddings&amp;gt;&lt;/b&gt;&lt;/div&gt;&lt;div&gt;&lt;b&gt;&amp;lt;date added&amp;gt;&lt;/b&gt;&lt;/div&gt;" style="rounded=0;whiteSpace=wrap;html=1;align=left;horizontal=1;verticalAlign=top;" vertex="1" parent="1">
          <mxGeometry x="2693.75" y="2090" width="345" height="150" as="geometry" />
        </mxCell>
        <mxCell id="o1j_lH1K5KizX1-DXXIF-19" value="&lt;div&gt;&lt;b&gt;Question 2 Answers&lt;/b&gt;&lt;/div&gt;&lt;div&gt;&lt;b&gt;&lt;br&gt;&lt;/b&gt;&lt;/div&gt;&lt;div&gt;&lt;b&gt;Version 3&lt;/b&gt;&lt;/div&gt;&lt;div&gt;&lt;b&gt;parent ID:&amp;nbsp;&lt;/b&gt;&lt;span style=&quot;background-color: initial;&quot;&gt;77777&lt;/span&gt;&lt;/div&gt;&lt;div&gt;&lt;b&gt;&amp;lt;good answers&amp;gt;&lt;/b&gt;&lt;/div&gt;&lt;div&gt;&lt;b style=&quot;background-color: initial;&quot;&gt;&amp;lt;embeddings&amp;gt;&lt;/b&gt;&lt;/div&gt;&lt;div&gt;&lt;b&gt;&amp;lt;date added&amp;gt;&lt;/b&gt;&lt;/div&gt;" style="rounded=0;whiteSpace=wrap;html=1;align=left;horizontal=1;verticalAlign=top;" vertex="1" parent="1">
          <mxGeometry x="2693.75" y="2410" width="345" height="150" as="geometry" />
        </mxCell>
        <mxCell id="o1j_lH1K5KizX1-DXXIF-21" value="ADMIN UI&lt;div&gt;&lt;br&gt;&lt;/div&gt;&lt;div&gt;&lt;br&gt;&lt;/div&gt;&lt;div&gt;Edit Question 1:&lt;/div&gt;&lt;div&gt;&lt;br&gt;&lt;/div&gt;&lt;div&gt;Add new answer?&lt;/div&gt;&lt;div&gt;Enable new question/answer version?&lt;/div&gt;&lt;div&gt;Version 1&amp;nbsp; &amp;nbsp; --&amp;gt;&amp;nbsp; Set to Active&lt;/div&gt;&lt;div&gt;Version 2&lt;/div&gt;&lt;div&gt;Version 3...&amp;nbsp;&lt;/div&gt;&lt;div&gt;&lt;br&gt;&lt;/div&gt;&lt;div&gt;Disable question?&lt;/div&gt;" style="whiteSpace=wrap;html=1;aspect=fixed;verticalAlign=top;align=left;" vertex="1" parent="1">
          <mxGeometry x="1730" y="530" width="320" height="320" as="geometry" />
        </mxCell>
      </root>
    </mxGraphModel>
  </diagram>
</mxfile>
